<svg version="1.1" viewBox="0 0 96 96" xmlns="http://www.w3.org/2000/svg" xmlns:xlink="http://www.w3.org/1999/xlink" id="Icons_dna" overflow="hidden"><path d=" M 70 48 C 70 36.6 62.4 30.6 54.3 26 C 62.4 21.3 70 15.4 70 4 L 64 4 C 64 5.8 63.7 7.5 63.2 9 L 32.8 9 C 32.3 7.5 32 5.8 32 4 L 26 4 C 26 15.4 33.6 21.3 41.7 26 C 33.6 30.6 26 36.6 26 48 C 26 59.5 33.6 65.5 41.7 70.1 C 33.6 74.7 26 80.6 26 92 L 32 92 C 32 90.1 32.3 88.5 32.8 87 L 63.2 87 C 63.7 88.5 64 90.1 64 92 L 70 92 C 70 80.6 62.4 74.7 54.3 70.1 C 62.4 65.5 70 59.5 70 48 Z M 32 48 C 32 46.2 32.3 44.5 32.8 43 L 63.3 43 C 63.8 44.5 64.1 46.2 64.1 48 C 64.1 49.8 63.8 51.5 63.3 53 L 32.8 53 C 32.3 51.5 32 49.8 32 48 Z M 36.6 15 L 59.3 15 C 56.4 17.9 52.3 20.2 47.9 22.6 C 43.6 20.2 39.5 17.9 36.6 15 Z M 48 29.4 C 52.4 31.8 56.5 34.1 59.4 37 L 36.6 37 C 39.5 34.1 43.6 31.7 48 29.4 Z M 48 73.5 C 52.4 75.8 56.4 78.1 59.3 81 L 36.7 81 C 39.6 78.1 43.6 75.8 48 73.5 Z M 48 66.7 C 43.5 64.3 39.4 62 36.5 59 L 59.5 59 C 56.6 62 52.5 64.3 48 66.7 Z" stroke="none" stroke-width="1" stroke-linecap="butt" fill="#00B050" fill-opacity="1"/></svg>