<?xml version="1.0" encoding="UTF-8" standalone="no"?>
<!-- Created with Inkscape (http://www.inkscape.org/) -->

<svg
   xmlns:dc="http://purl.org/dc/elements/1.1/"
   xmlns:cc="http://creativecommons.org/ns#"
   xmlns:rdf="http://www.w3.org/1999/02/22-rdf-syntax-ns#"
   xmlns:svg="http://www.w3.org/2000/svg"
   xmlns="http://www.w3.org/2000/svg"
   xmlns:sodipodi="http://sodipodi.sourceforge.net/DTD/sodipodi-0.dtd"
   xmlns:inkscape="http://www.inkscape.org/namespaces/inkscape"
   width="104.1899mm"
   height="30.264999mm"
   viewBox="0 0 104.1899 30.264999"
   version="1.1"
   id="svg186"
   inkscape:version="0.92.4 (5da689c313, 2019-01-14)"
   sodipodi:docname="earthmars.svg">
  <defs
     id="defs180" />
  <sodipodi:namedview
     id="base"
     pagecolor="#ffffff"
     bordercolor="#666666"
     borderopacity="1.0"
     inkscape:pageopacity="0.0"
     inkscape:pageshadow="2"
     inkscape:zoom="3.959798"
     inkscape:cx="197.50868"
     inkscape:cy="27.420687"
     inkscape:document-units="mm"
     inkscape:current-layer="layer1"
     showgrid="false"
     inkscape:window-width="2560"
     inkscape:window-height="1377"
     inkscape:window-x="-8"
     inkscape:window-y="-8"
     inkscape:window-maximized="1" />
  <metadata
     id="metadata183">
    <rdf:RDF>
      <cc:Work
         rdf:about="">
        <dc:format>image/svg+xml</dc:format>
        <dc:type
           rdf:resource="http://purl.org/dc/dcmitype/StillImage" />
        <dc:title></dc:title>
      </cc:Work>
    </rdf:RDF>
  </metadata>
  <g
     inkscape:label="Layer 1"
     inkscape:groupmode="layer"
     id="layer1"
     transform="translate(-38.187771,-141.41735)">
    <circle
       style="fill:#0063aa;fill-opacity:1;stroke:#009700;stroke-width:0.26499999;stroke-miterlimit:4;stroke-dasharray:none;stroke-opacity:1"
       id="path188"
       cx="53.320271"
       cy="156.54985"
       r="15" />
    <circle
       style="fill:#d26600;fill-opacity:1;stroke:#ff9700;stroke-width:0.17511977;stroke-miterlimit:4;stroke-dasharray:none;stroke-opacity:1"
       id="path188-2"
       cx="132.37767"
       cy="156.60425"
       r="9.9124403" />
    <path
       style="fill:#44aa00;stroke:#009100;stroke-width:0.26458332px;stroke-linecap:butt;stroke-linejoin:miter;stroke-opacity:1"
       d="m 53.587541,155.28033 -3.140419,0.60136 -0.601356,1.67043 1.002261,2.60588 2.672696,1.26953 c 0,0 0.935442,3.14042 0.801809,3.40769 -0.133636,0.26727 -0.868627,2.60587 -0.868627,2.60587 l 2.138156,1.53681 3.674957,-1.00227 -0.734992,-3.94222 2.071339,-1.5368 1.603618,-2.60588 -1.870887,-3.94222 -3.674957,-1.20272 z"
       id="path4713"
       inkscape:connector-curvature="0" />
    <path
       style="fill:#008000;stroke:#00a900;stroke-width:0.26458332px;stroke-linecap:butt;stroke-linejoin:miter;stroke-opacity:1"
       d="m 55.057521,152.94172 -2.338607,0.93545 -3.140416,-0.0668 0.668173,-1.87089 1.469983,-0.4009 -0.06682,-1.06908 0.200451,-1.1359 1.403164,-0.20045 0.80181,-1.00226 1.403164,-0.60136 c 0,0 0.80181,1.06908 1.202714,1.26954 0.400905,0.20045 1.737252,0.26726 1.870887,0 0.133634,-0.26727 0,-1.40317 -0.53454,-1.46999 -0.534538,-0.0668 -1.536798,-0.46772 -1.937702,-0.53454 -0.400905,-0.0668 -1.670437,-0.53454 -2.138156,-0.60135 -0.467723,-0.0668 -0.80181,-0.73499 -0.868628,-1.20272 -0.06682,-0.46772 1.069079,-1.00226 1.536801,-1.13589 0.46772,-0.13364 2.472243,-0.33409 2.472243,-0.33409 0,0 2.405425,0 2.672694,0.13364 0.267271,0.13363 2.138156,0.66817 2.138156,0.66817 l 2.271792,2.00452 1.403164,1.67044 1.269532,2.47224 1.202711,2.40542 -0.534538,2.40543 c 0,0 -0.53454,1.40317 -1.269531,1.46998 -0.734992,0.0668 -2.138156,-0.4009 -2.605876,-0.8018 -0.467723,-0.40091 -0.200454,-1.87089 -1.737254,-0.93545 -1.536798,0.93545 -2.004521,-0.4009 -2.004521,-0.4009 l 0.334087,-1.73726 z"
       id="path4715"
       inkscape:connector-curvature="0" />
    <path
       style="fill:none;stroke:#000000;stroke-width:0.26458332px;stroke-linecap:butt;stroke-linejoin:miter;stroke-opacity:1"
       d="m 68.020091,152.87492 v 0"
       id="path4717"
       inkscape:connector-curvature="0" />
    <path
       style="fill:#338000;stroke:#00ad00;stroke-width:0.26458332px;stroke-linecap:butt;stroke-linejoin:miter;stroke-opacity:1"
       d="m 45.026413,145.90402 1.181176,2.36235 -1.181176,2.03162 -1.937129,1.74814 -1.937128,1.37016 0.377979,1.70089 c 0,0 0.897691,1.41742 0.897691,1.6064 0,0.18899 0.0945,2.45685 0,2.78758 -0.09449,0.33073 -0.897691,2.45684 -0.755952,2.92932 0.14174,0.47246 1.039435,1.70089 1.228424,2.17336 0.188986,0.47247 0.755951,1.79539 0.755951,1.79539 l -0.188989,1.46465 -1.795386,-2.03162 -0.614211,-1.74814 -1.181174,-1.27567 -0.519719,-1.65364 -0.377975,-2.36236 -0.18899,-2.55134 0.236236,-3.1183 0.755952,-2.50409 1.653646,-2.64583 1.370163,-1.84264 z"
       id="path4719"
       inkscape:connector-curvature="0" />
    <ellipse
       style="fill:#d45500;fill-opacity:1;stroke:#d8761a;stroke-width:0.26499999;stroke-miterlimit:4;stroke-dasharray:none;stroke-opacity:1"
       id="path4745"
       cx="130.61128"
       cy="155.5643"
       rx="0.88533032"
       ry="0.81851292" />
    <ellipse
       style="fill:#d45500;fill-opacity:1;stroke:#d8761a;stroke-width:0.26499999;stroke-miterlimit:4;stroke-dasharray:none;stroke-opacity:1"
       id="path4747"
       cx="132.43205"
       cy="152.30696"
       rx="0.96885204"
       ry="1.0022607" />
    <ellipse
       style="fill:#d45500;fill-opacity:1;stroke:#d8761a;stroke-width:0.26499999;stroke-miterlimit:4;stroke-dasharray:none;stroke-opacity:1"
       id="path4749"
       cx="128.0388"
       cy="153.39273"
       rx="1.1860086"
       ry="1.0857824" />
    <ellipse
       style="fill:#d45500;fill-opacity:1;stroke:#d8761a;stroke-width:0.26499999;stroke-miterlimit:4;stroke-dasharray:none;stroke-opacity:1"
       id="path4751"
       cx="126.00088"
       cy="159.80721"
       rx="1.1191912"
       ry="1.252826" />
    <ellipse
       style="fill:#d45500;fill-opacity:1;stroke:#d8761a;stroke-width:0.26499999;stroke-miterlimit:4;stroke-dasharray:none;stroke-opacity:1"
       id="path4753"
       cx="128.18915"
       cy="157.73587"
       rx="0.83521724"
       ry="0.91873902" />
    <ellipse
       style="fill:#d45500;fill-opacity:1;stroke:#d8761a;stroke-width:0.26499999;stroke-miterlimit:4;stroke-dasharray:none;stroke-opacity:1"
       id="path4755"
       cx="133.05011"
       cy="164.8018"
       rx="1.2194172"
       ry="1.0690781" />
    <ellipse
       style="fill:#d45500;fill-opacity:1;stroke:#d8761a;stroke-width:0.26499999;stroke-miterlimit:4;stroke-dasharray:none;stroke-opacity:1"
       id="path4757"
       cx="132.44875"
       cy="162.04559"
       rx="1.4532781"
       ry="1.2194172" />
    <ellipse
       style="fill:#d45500;fill-opacity:1;stroke:#d8761a;stroke-width:0.26499999;stroke-miterlimit:4;stroke-dasharray:none;stroke-opacity:1"
       id="path4759"
       cx="134.35304"
       cy="159.00539"
       rx="1.0523738"
       ry="1.1191912" />
    <ellipse
       style="fill:#d45500;fill-opacity:1;stroke:#d8761a;stroke-width:0.26499999;stroke-miterlimit:4;stroke-dasharray:none;stroke-opacity:1"
       id="path4761"
       cx="131.37967"
       cy="158.83835"
       rx="0.68487817"
       ry="0.75169551" />
    <ellipse
       style="fill:#d45500;fill-opacity:1;stroke:#d8761a;stroke-width:0.26499999;stroke-miterlimit:4;stroke-dasharray:none;stroke-opacity:1"
       id="path4763"
       cx="136.34087"
       cy="155.44737"
       rx="2.1381562"
       ry="1.6704345" />
    <ellipse
       style="fill:#d45500;fill-opacity:1;stroke:#d8761a;stroke-width:0.26499999;stroke-miterlimit:4;stroke-dasharray:none;stroke-opacity:1"
       id="path4765"
       cx="138.84651"
       cy="157.91962"
       rx="1.503391"
       ry="1.3697563" />
    <ellipse
       style="fill:#d45500;fill-opacity:1;stroke:#d8761a;stroke-width:0.26499999;stroke-miterlimit:4;stroke-dasharray:none;stroke-opacity:1"
       id="path4767"
       cx="136.79189"
       cy="162.22934"
       rx="1.3196433"
       ry="1.2361215" />
    <ellipse
       style="fill:#d45500;fill-opacity:1;stroke:#d8761a;stroke-width:0.26499999;stroke-miterlimit:4;stroke-dasharray:none;stroke-opacity:1"
       id="path4769"
       cx="136.55803"
       cy="151.07083"
       rx="1.2862346"
       ry="1.1024867" />
    <ellipse
       style="fill:#d45500;fill-opacity:1;stroke:#d8761a;stroke-width:0.33194119;stroke-miterlimit:4;stroke-dasharray:none;stroke-opacity:1"
       id="path4771"
       cx="130.87856"
       cy="149.3503"
       rx="1.4532162"
       ry="1.0189031" />
    <ellipse
       style="fill:#d45500;fill-opacity:1;stroke:#d8761a;stroke-width:0.26499999;stroke-miterlimit:4;stroke-dasharray:none;stroke-opacity:1"
       id="path4773"
       cx="125.49975"
       cy="155.61443"
       rx="0.71828681"
       ry="0.8018086" />
    <path
       style="fill:#00ff00;stroke:#009100;stroke-width:0.26458332px;stroke-linecap:butt;stroke-linejoin:miter;stroke-opacity:1"
       d="m 78.109519,156.88394 19.844761,-0.20045 8.8199,-0.0668 v -1.5368 l 7.01583,2.07134 -6.61492,2.00452 v -0.80181 H 78.109519 Z"
       id="path4775"
       inkscape:connector-curvature="0" />
  </g>
</svg>
