<?xml version="1.0" encoding="UTF-8" standalone="no"?>
<!-- Created with Inkscape (http://www.inkscape.org/) -->

<svg
   xmlns:dc="http://purl.org/dc/elements/1.1/"
   xmlns:cc="http://creativecommons.org/ns#"
   xmlns:rdf="http://www.w3.org/1999/02/22-rdf-syntax-ns#"
   xmlns:svg="http://www.w3.org/2000/svg"
   xmlns="http://www.w3.org/2000/svg"
   xmlns:xlink="http://www.w3.org/1999/xlink"
   xmlns:sodipodi="http://sodipodi.sourceforge.net/DTD/sodipodi-0.dtd"
   xmlns:inkscape="http://www.inkscape.org/namespaces/inkscape"
   width="143.62386mm"
   height="136.42207mm"
   viewBox="0 0 143.62386 136.42207"
   version="1.1"
   id="svg8"
   inkscape:version="0.92.4 (5da689c313, 2019-01-14)"
   sodipodi:docname="hq.svg">
  <defs
     id="defs2">
    <linearGradient
       inkscape:collect="always"
       id="linearGradient821">
      <stop
         style="stop-color:#0c78ba;stop-opacity:1;"
         offset="0"
         id="stop817" />
      <stop
         style="stop-color:#cdc8fe;stop-opacity:1"
         offset="1"
         id="stop819" />
    </linearGradient>
    <linearGradient
       inkscape:collect="always"
       xlink:href="#linearGradient821"
       id="linearGradient823"
       x1="80.433342"
       y1="93.535423"
       x2="108.00793"
       y2="62.874184"
       gradientUnits="userSpaceOnUse"
       gradientTransform="matrix(0.71878246,0,0,0.87249096,10.311975,18.33324)" />
    <linearGradient
       inkscape:collect="always"
       xlink:href="#linearGradient821"
       id="linearGradient823-8"
       x1="80.433342"
       y1="93.535423"
       x2="117.21042"
       y2="52.260414"
       gradientUnits="userSpaceOnUse"
       gradientTransform="matrix(0.88879094,0,0,0.46426336,68.147888,76.9325)" />
  </defs>
  <sodipodi:namedview
     id="base"
     pagecolor="#ffffff"
     bordercolor="#666666"
     borderopacity="1.0"
     inkscape:pageopacity="0.0"
     inkscape:pageshadow="2"
     inkscape:zoom="1"
     inkscape:cx="385.07372"
     inkscape:cy="114.54946"
     inkscape:document-units="mm"
     inkscape:current-layer="layer1"
     showgrid="false"
     inkscape:window-width="2560"
     inkscape:window-height="1377"
     inkscape:window-x="-8"
     inkscape:window-y="-8"
     inkscape:window-maximized="1" />
  <metadata
     id="metadata5">
    <rdf:RDF>
      <cc:Work
         rdf:about="">
        <dc:format>image/svg+xml</dc:format>
        <dc:type
           rdf:resource="http://purl.org/dc/dcmitype/StillImage" />
        <dc:title></dc:title>
      </cc:Work>
    </rdf:RDF>
  </metadata>
  <g
     inkscape:label="Layer 1"
     inkscape:groupmode="layer"
     id="layer1"
     transform="translate(-36.588313,-7.3083606)">
    <path
       style="fill:none;stroke:#969696;stroke-width:0.565;stroke-linecap:butt;stroke-linejoin:miter;stroke-miterlimit:4;stroke-dasharray:none;stroke-opacity:1"
       d="M 48.504181,10.93412 C 74.357032,0.30463256 96.112703,16.701457 94.241418,36.397236"
       id="path884"
       inkscape:connector-curvature="0"
       sodipodi:nodetypes="cc" />
    <path
       style="fill:none;stroke:#969696;stroke-width:0.47442192px;stroke-linecap:butt;stroke-linejoin:miter;stroke-opacity:1"
       d="m 70.697204,46.122179 5.271042,-32.127858 1.942455,0.290192 -3.563976,31.955393 z"
       id="path882"
       inkscape:connector-curvature="0"
       sodipodi:nodetypes="ccccc" />
    <rect
       style="fill:#ffffff;fill-opacity:1;stroke:#cdc8fe;stroke-width:0.71723634;stroke-linecap:square;stroke-miterlimit:4;stroke-dasharray:none;stroke-dashoffset:0;stroke-opacity:1"
       id="rect872"
       width="5.2186413"
       height="14.70708"
       x="60.641781"
       y="49.341053" />
    <rect
       style="fill:url(#linearGradient823);fill-opacity:1;stroke:#110083;stroke-width:0.31676647;stroke-linecap:square;stroke-miterlimit:4;stroke-dasharray:none;stroke-dashoffset:0;stroke-opacity:1"
       id="rect815"
       width="64.089935"
       height="86.336617"
       x="36.746696"
       y="57.235428" />
    <rect
       style="fill:url(#linearGradient823-8);fill-opacity:1;stroke:#110083;stroke-width:0.25694609;stroke-linecap:square;stroke-miterlimit:4;stroke-dasharray:none;stroke-dashoffset:0;stroke-opacity:1"
       id="rect815-7"
       width="79.248672"
       height="45.9408"
       x="100.83503"
       y="97.632851" />
    <path
       style="fill:#ffffff;fill-opacity:1;stroke:#969696;stroke-width:0.68988049;stroke-linecap:square;stroke-miterlimit:4;stroke-dasharray:none;stroke-dashoffset:0;stroke-opacity:1"
       d="M 48.504181,10.93412 A 26.551421,26.551421 0 0 0 42.741619,27.405456 26.551421,26.551421 0 0 0 69.293498,53.957333 26.551421,26.551421 0 0 0 94.24142,36.397236 26.551421,26.551421 0 0 1 73.451175,46.478703 26.551421,26.551421 0 0 1 46.900227,19.926824 26.551421,26.551421 0 0 1 48.504181,10.93412 Z"
       id="path851"
       inkscape:connector-curvature="0" />
    <path
       style="fill:#ffffff;stroke:#969696;stroke-width:0.47442192px;stroke-linecap:butt;stroke-linejoin:miter;stroke-opacity:1"
       d="m 73.654465,14.80868 3.857872,2.85147 3.35467,-4.696535 -3.690139,-2.180538 z"
       id="path874"
       inkscape:connector-curvature="0" />
    <path
       style="fill:none;stroke:#969696;stroke-width:0.47442192px;stroke-linecap:butt;stroke-linejoin:miter;stroke-opacity:1"
       d="M 94.235608,31.293372 78.43487,16.465049 79.609002,14.661914 93.726347,27.859542 Z"
       id="path876"
       inkscape:connector-curvature="0"
       sodipodi:nodetypes="ccccc" />
    <path
       style="fill:none;stroke:#969696;stroke-width:0.47442192px;stroke-linecap:butt;stroke-linejoin:miter;stroke-opacity:1"
       d="m 47.773089,13.344297 28.395631,-1.434469 -1.772976,1.97966 -27.156379,2.242037 z"
       id="path878"
       inkscape:connector-curvature="0"
       sodipodi:nodetypes="ccccc" />
    <path
       style="fill:none;stroke:#969696;stroke-width:0.35861817;stroke-linecap:butt;stroke-linejoin:miter;stroke-miterlimit:4;stroke-dasharray:none;stroke-opacity:1"
       d="m 79.084836,11.978179 c 0.995919,-0.373906 1.446702,-0.328478 2.987754,0.262083 1.387295,0.590562 -0.999413,3.319725 -0.786252,4.790888 0.04194,1.887002 0.922534,2.054735 1.551538,3.899803 0.391378,2.362247 0.992423,8.582364 3.606274,9.728542 0.26557,3.452513 1.45369,3.131023 1.887,6.835136 -0.3774,1.866036 1.09026,2.22247 1.6354,3.333704"
       id="path880"
       inkscape:connector-curvature="0"
       sodipodi:nodetypes="ccccccc" />
    <path
       id="path886-6-0"
       style="fill:none;stroke:#000000;stroke-width:0.26458332px;stroke-linecap:butt;stroke-linejoin:miter;stroke-opacity:1"
       d="M 92.616069,143.47156 V 57.154996 M 84.704088,143.49587 V 57.179299 M 76.679331,143.47144 V 57.154868 M 68.91955,143.573 V 57.256425 M 60.894793,143.54856 V 57.231994 m -7.91198,86.340876 V 57.256297 M 44.958056,143.54844 V 57.231866"
       inkscape:connector-curvature="0" />
    <path
       inkscape:connector-curvature="0"
       id="path886-6-0-3"
       style="fill:none;stroke:#000000;stroke-width:0.22746414px;stroke-linecap:butt;stroke-linejoin:miter;stroke-opacity:1"
       d="M 36.702387,111.46976 H 100.49863 M 36.684419,103.55777 H 100.48067 M 36.702476,95.533015 H 100.49873 M 36.627413,87.773235 H 100.42367 M 36.645484,79.748478 H 100.44172 M 36.627516,71.836498 H 100.42376 M 36.645565,63.811741 h 63.796255" />
    <path
       inkscape:connector-curvature="0"
       id="path886-6-0-3-1"
       style="fill:none;stroke:#000000;stroke-width:0.22746414px;stroke-linecap:butt;stroke-linejoin:miter;stroke-opacity:1"
       d="M 36.764767,135.54729 H 100.561 M 36.746799,127.63531 H 100.54304 M 36.764848,119.61056 H 100.5611"
       sodipodi:nodetypes="cccccc" />
    <path
       inkscape:connector-curvature="0"
       id="path886-6-0-0"
       style="fill:none;stroke:#000000;stroke-width:0.26458332px;stroke-linecap:butt;stroke-linejoin:miter;stroke-opacity:1"
       d="m 179.89298,105.64889 h -79.39435 m 79.49591,7.75979 h -79.39435 m 79.36991,8.02475 h -79.39434 m 79.41864,7.91198 h -79.39434 m 79.36991,8.02475 h -79.39434"
       sodipodi:nodetypes="cccccccccc" />
    <path
       inkscape:connector-curvature="0"
       id="path886-6-0-3-6"
       style="fill:none;stroke:#000000;stroke-width:0.22746414px;stroke-linecap:butt;stroke-linejoin:miter;stroke-opacity:1"
       d="M 148.27451,143.50322 V 97.704796 m -7.91199,45.816394 V 97.722746 m -8.02476,45.780384 V 97.704696 M 124.57798,143.5782 V 97.779756 m -8.02475,45.780374 V 97.761706 m -7.91199,45.816384 V 97.779666"
       sodipodi:nodetypes="cccccccccccc" />
    <path
       inkscape:connector-curvature="0"
       id="path886-6-0-3-1-5"
       style="fill:none;stroke:#000000;stroke-width:0.22746414px;stroke-linecap:butt;stroke-linejoin:miter;stroke-opacity:1"
       d="M 172.10611,143.62857 V 97.848337 m -7.91198,45.798193 V 97.848116 m -8.02475,45.780374 V 97.830056"
       sodipodi:nodetypes="cccccc" />
    <path
       style="fill:#ff0000;stroke:#000000;stroke-width:0.23652734px;stroke-linecap:butt;stroke-linejoin:miter;stroke-opacity:1"
       d="m 54.451818,62.52381 v 7.54589 7.53101 h 4.81096 l -0.42095,-5.7423 h 2.07906 l -0.1637,5.75766 h 4.96747 V 70.0697 62.53917 h -4.67064 l 0.11693,5.7423 h -1.91536 l 0.25725,-5.75766 z"
       id="path1063"
       inkscape:connector-curvature="0"
       sodipodi:nodetypes="ccccccccccccccc" />
    <path
       style="fill:#ff0000;stroke:#000000;stroke-width:0.29846084px;stroke-linecap:butt;stroke-linejoin:miter;stroke-opacity:1"
       d="m 74.387858,61.89366 c -3.642,0.10497 -7.3759,3.85443 -7.1753,7.49242 0.19512,3.53875 2.63645,6.40486 6.17324,7.86141 1.30065,0.53565 3.5349,-2.16326 3.5349,-2.16326 l 2.74328,3.00735 2.42732,-2.5853 -2.90183,-2.74386 c 0,0 2.46713,-2.82977 2.42674,-4.11491 -0.11201,-3.5684 -3.65968,-6.85669 -7.22835,-6.75385 z m 0.1119,2.08981 c 2.53192,-0.073 5.04915,2.25998 5.12863,4.7917 0.0286,0.91179 -1.72198,2.9199 -1.72198,2.9199 l -1.90909,-1.98429 -1.72198,1.83448 2.02102,1.79659 c 0,0 -1.58498,1.91489 -2.50777,1.53486 -2.50929,-1.0334 -4.24113,-3.0668 -4.37956,-5.57748 -0.14232,-2.5811 2.5068,-5.24129 5.09073,-5.31576 z"
       id="path1081"
       inkscape:connector-curvature="0" />
  </g>
</svg>
