<?xml version="1.0" encoding="UTF-8" standalone="no"?>
<!-- Created with Inkscape (http://www.inkscape.org/) -->

<svg
   xmlns:dc="http://purl.org/dc/elements/1.1/"
   xmlns:cc="http://creativecommons.org/ns#"
   xmlns:rdf="http://www.w3.org/1999/02/22-rdf-syntax-ns#"
   xmlns:svg="http://www.w3.org/2000/svg"
   xmlns="http://www.w3.org/2000/svg"
   xmlns:sodipodi="http://sodipodi.sourceforge.net/DTD/sodipodi-0.dtd"
   xmlns:inkscape="http://www.inkscape.org/namespaces/inkscape"
   width="61.977413mm"
   height="68.176147mm"
   viewBox="0 0 61.977413 68.176147"
   version="1.1"
   id="svg8"
   inkscape:version="0.92.4 (5da689c313, 2019-01-14)"
   sodipodi:docname="prof2.svg">
  <defs
     id="defs2" />
  <sodipodi:namedview
     id="base"
     pagecolor="#ffffff"
     bordercolor="#666666"
     borderopacity="1.0"
     inkscape:pageopacity="0.0"
     inkscape:pageshadow="2"
     inkscape:zoom="3.02"
     inkscape:cx="104.97402"
     inkscape:cy="121.77285"
     inkscape:document-units="mm"
     inkscape:current-layer="layer1"
     showgrid="false"
     inkscape:window-width="2560"
     inkscape:window-height="1377"
     inkscape:window-x="-8"
     inkscape:window-y="-8"
     inkscape:window-maximized="1" />
  <metadata
     id="metadata5">
    <rdf:RDF>
      <cc:Work
         rdf:about="">
        <dc:format>image/svg+xml</dc:format>
        <dc:type
           rdf:resource="http://purl.org/dc/dcmitype/StillImage" />
        <dc:title></dc:title>
      </cc:Work>
    </rdf:RDF>
  </metadata>
  <g
     inkscape:label="Layer 1"
     inkscape:groupmode="layer"
     id="layer1"
     transform="translate(-56.277915,-36.441906)">
    <path
       style="fill:#ffffff;stroke:#000000;stroke-width:0.26458332px;stroke-linecap:butt;stroke-linejoin:miter;stroke-opacity:1"
       d="m 67.319821,75.112838 c 13.115365,-5.160278 29.260874,-5.393549 42.282049,0 3.62591,1.5019 8.07421,4.408845 8.32544,8.325448 0.43977,6.855955 0,21.047474 0,21.047474 H 56.468679 c 0,0 -0.131497,-13.006347 0,-19.270133 0.103726,-4.940949 6.252266,-8.293348 10.851142,-10.102789 z"
       id="path857"
       inkscape:connector-curvature="0"
       sodipodi:nodetypes="sssccss" />
    <rect
       style="fill:#0000ff;fill-opacity:1;stroke:#000000;stroke-width:0.26499999;stroke-linecap:square;stroke-miterlimit:4;stroke-dasharray:none;stroke-dashoffset:0;stroke-opacity:1"
       id="rect863-1-2"
       width="0.3975634"
       height="2.5724692"
       x="102.58305"
       y="86.267998" />
    <rect
       style="fill:#ff0000;fill-opacity:1;stroke:#000000;stroke-width:0.26499999;stroke-linecap:square;stroke-miterlimit:4;stroke-dasharray:none;stroke-dashoffset:0;stroke-opacity:1"
       id="rect863"
       width="0.3975634"
       height="2.5724692"
       x="99.788422"
       y="86.268005" />
    <ellipse
       style="fill:#ffd17a;fill-opacity:1;stroke:#000000;stroke-width:0.26499999;stroke-linecap:square;stroke-miterlimit:4;stroke-dasharray:none;stroke-dashoffset:0;stroke-opacity:1"
       id="path815"
       cx="87.123512"
       cy="58.308037"
       rx="22.489584"
       ry="21.733631" />
    <circle
       style="fill:#ffffff;fill-opacity:1;stroke:#000000;stroke-width:0.26499999;stroke-linecap:square;stroke-miterlimit:4;stroke-dasharray:none;stroke-dashoffset:0;stroke-opacity:1"
       id="path817"
       cx="81.355873"
       cy="59.638958"
       r="5.953125" />
    <path
       style="fill:#ffffff;stroke:#000000;stroke-width:0.26458332px;stroke-linecap:butt;stroke-linejoin:miter;stroke-opacity:1"
       d="m 78.621423,69.386373 c -0.01056,-1.281813 0.442904,-3.326824 1.719792,-3.439583 4.867779,-0.429861 9.240692,-0.76484 13.626042,0 1.169383,0.20395 1.780553,3.084007 1.780553,3.084007 0.558294,0.966993 -0.626871,2.982767 -1.844006,3.193909 -1.372052,-0.168385 -0.384443,-2.746637 -1.856906,-3.216256 -1.502771,0.686182 -0.696086,3.129558 -1.797212,3.112862 -1.346411,0.159756 -1.337273,-2.341384 -2.683684,-2.683684 -1.473435,0.419117 -1.390497,2.846458 -2.462287,2.462286 -1.12314,0.08179 -1.292375,-1.995253 -2.315104,-2.315104 -1.308078,0.555385 -1.2104,2.667143 -2.568684,2.87109 -1.285918,-0.420709 -1.589002,-1.915963 -1.598504,-3.069527 z"
       id="path819"
       inkscape:connector-curvature="0"
       sodipodi:nodetypes="asssccccccca" />
    <circle
       style="fill:#ffffff;fill-opacity:1;stroke:#000000;stroke-width:0.26499999;stroke-linecap:square;stroke-miterlimit:4;stroke-dasharray:none;stroke-dashoffset:0;stroke-opacity:1"
       id="path817-6"
       cx="91.749184"
       cy="59.577709"
       r="5.953125" />
    <path
       style="fill:none;stroke:#000000;stroke-width:0.26458332px;stroke-linecap:butt;stroke-linejoin:miter;stroke-opacity:1"
       d="M 75.38216,59.627918 66.294953,56.213937"
       id="path836"
       inkscape:connector-curvature="0"
       sodipodi:nodetypes="cc" />
    <path
       style="fill:none;stroke:#000000;stroke-width:0.26458332px;stroke-linecap:butt;stroke-linejoin:miter;stroke-opacity:1"
       d="M 97.673432,59.125862 108.51783,54.757977"
       id="path838"
       inkscape:connector-curvature="0" />
    <path
       style="fill:#ffffff;stroke:#000000;stroke-width:0.26458332px;stroke-linecap:butt;stroke-linejoin:miter;stroke-opacity:1"
       d="m 107.35329,57.504505 c -0.12568,-0.798789 -1.96894,-1.344533 -1.91766,-2.151521 0.0645,-1.014344 1.0927,-1.856622 2.0112,-2.291836 0.81766,-0.387432 1.93504,-0.555888 2.71279,-0.09354 0.56937,0.338471 0.85395,1.115878 0.88867,1.777344 0.0489,0.931169 -0.44432,1.8274 -0.42095,2.759557 0.0128,0.509588 0.60565,0.893423 0.60804,1.403165 0.004,0.761547 -0.25402,1.68381 -0.88867,2.104747 -0.75357,0.499815 -1.92057,0.435992 -2.71278,0 -0.48503,-0.266938 -0.81051,-0.855075 -0.88868,-1.403165 -0.10311,-0.722957 0.72154,-1.383352 0.60804,-2.104751 z"
       id="path840"
       inkscape:connector-curvature="0"
       sodipodi:nodetypes="sssssssssss" />
    <path
       style="fill:#ffffff;stroke:#000000;stroke-width:0.26458332px;stroke-linecap:butt;stroke-linejoin:miter;stroke-opacity:1"
       d="m 63.995371,58.707507 c -0.12568,-0.798789 -0.939948,-1.297761 -0.888668,-2.104748 0.0645,-1.014344 1.0927,-1.856622 2.0112,-2.291836 0.81766,-0.387432 1.93504,-0.555888 2.71279,-0.09354 0.56937,0.33847 0.85395,1.115878 0.88867,1.777344 0.0489,0.931169 -1.473312,1.780627 -1.449942,2.712784 0.0128,0.509588 0.60565,0.893423 0.60804,1.403165 0.004,0.761547 -0.25402,1.68381 -0.88867,2.104747 -0.75357,0.499815 -1.92057,0.435992 -2.71278,0 -0.48503,-0.266938 -0.81051,-0.855075 -0.88868,-1.403166 -0.10311,-0.722957 0.72154,-1.383352 0.60804,-2.10475 z"
       id="path840-4"
       inkscape:connector-curvature="0"
       sodipodi:nodetypes="sssssssssss" />
    <rect
       style="fill:#0000ff;fill-opacity:1;stroke:#000000;stroke-width:0.26499999;stroke-linecap:square;stroke-miterlimit:4;stroke-dasharray:none;stroke-dashoffset:0;stroke-opacity:1"
       id="rect863-1"
       width="0.3975634"
       height="2.5724692"
       x="100.84079"
       y="86.501869" />
    <path
       style="fill:#ffffff;stroke:#000000;stroke-width:0.26458332px;stroke-linecap:butt;stroke-linejoin:miter;stroke-opacity:1"
       d="M 98.292707,94.461458 H 106.3625 V 87.390621 H 98.160415 Z"
       id="path859"
       inkscape:connector-curvature="0"
       sodipodi:nodetypes="ccccc" />
    <path
       style="fill:none;stroke:#000000;stroke-width:0.26458332px;stroke-linecap:butt;stroke-linejoin:miter;stroke-opacity:1"
       d="m 98.160415,87.390621 -0.04677,-2.22168 h 8.231905 l 0.0468,2.174907"
       id="path861"
       inkscape:connector-curvature="0"
       sodipodi:nodetypes="cccc" />
    <path
       id="path913"
       style="fill:none;stroke:#000000;stroke-width:0.26458332px;stroke-linecap:butt;stroke-linejoin:miter;stroke-opacity:1"
       d="m 86.944945,91.606671 v 12.850809 m -9.45679,-26.23087 -0.20102,3.219442 2.81689,4.325834 h 1.30793 v 1.207161 l 2.81636,4.325835 2.71663,0.301789 z m 9.45679,13.380061 2.71612,-0.301789 2.81688,-4.325835 v -1.207161 h 1.30793 l 2.81688,-4.325834 -0.20154,-3.219442 z"
       inkscape:connector-curvature="0"
       sodipodi:nodetypes="cccccccccccccccccc" />
  </g>
</svg>
