<?xml version="1.0" encoding="UTF-8" standalone="no"?>
<!-- Created with Inkscape (http://www.inkscape.org/) -->

<svg
   xmlns:dc="http://purl.org/dc/elements/1.1/"
   xmlns:cc="http://creativecommons.org/ns#"
   xmlns:rdf="http://www.w3.org/1999/02/22-rdf-syntax-ns#"
   xmlns:svg="http://www.w3.org/2000/svg"
   xmlns="http://www.w3.org/2000/svg"
   xmlns:xlink="http://www.w3.org/1999/xlink"
   xmlns:sodipodi="http://sodipodi.sourceforge.net/DTD/sodipodi-0.dtd"
   xmlns:inkscape="http://www.inkscape.org/namespaces/inkscape"
   width="96.708481mm"
   height="272.04587mm"
   viewBox="0 0 96.708481 272.04587"
   version="1.1"
   id="svg8"
   inkscape:version="0.92.4 (5da689c313, 2019-01-14)"
   sodipodi:docname="raket.svg"
   inkscape:export-filename="C:\Users\Janni S. Truelsen\Documents\niklas\uni\raket.png"
   inkscape:export-xdpi="96"
   inkscape:export-ydpi="96">
  <defs
     id="defs2">
    <linearGradient
       inkscape:collect="always"
       id="linearGradient867">
      <stop
         style="stop-color:#ff0000;stop-opacity:1;"
         offset="0"
         id="stop863" />
      <stop
         style="stop-color:#ff0000;stop-opacity:0;"
         offset="1"
         id="stop865" />
    </linearGradient>
    <linearGradient
       inkscape:collect="always"
       xlink:href="#linearGradient867"
       id="linearGradient871"
       x1="74.167015"
       y1="102.72157"
       x2="107.86627"
       y2="94.758179"
       gradientUnits="userSpaceOnUse"
       gradientTransform="matrix(1.8075791,0,0,1.8075791,-98.516359,-77.242047)" />
  </defs>
  <sodipodi:namedview
     id="base"
     pagecolor="#ffffff"
     bordercolor="#666666"
     borderopacity="1.0"
     inkscape:pageopacity="0.0"
     inkscape:pageshadow="2"
     inkscape:zoom="0.64"
     inkscape:cx="326.52277"
     inkscape:cy="487.04556"
     inkscape:document-units="mm"
     inkscape:current-layer="layer1"
     showgrid="false"
     inkscape:window-width="2560"
     inkscape:window-height="1377"
     inkscape:window-x="-8"
     inkscape:window-y="-8"
     inkscape:window-maximized="1" />
  <metadata
     id="metadata5">
    <rdf:RDF>
      <cc:Work
         rdf:about="">
        <dc:format>image/svg+xml</dc:format>
        <dc:type
           rdf:resource="http://purl.org/dc/dcmitype/StillImage" />
        <dc:title></dc:title>
      </cc:Work>
    </rdf:RDF>
  </metadata>
  <g
     inkscape:label="Layer 1"
     inkscape:groupmode="layer"
     id="layer1"
     transform="translate(-6.3239959,-9.5911027)">
    <path
       style="fill:#ffffff;fill-opacity:1;stroke:none;stroke-width:0.47900841;stroke-linecap:butt;stroke-linejoin:miter;stroke-miterlimit:4;stroke-dasharray:none;stroke-opacity:1"
       d="m 17.140706,178.24522 c 0,0 -17.7826213,-169.114559 39.904968,-168.4124231 C 113.72812,10.522697 92.216122,176.21617 92.216122,176.21617 Z"
       id="path815-3"
       inkscape:connector-curvature="0"
       sodipodi:nodetypes="csc" />
    <path
       style="fill:url(#linearGradient871);fill-opacity:1;stroke:#000000;stroke-width:0.47900841;stroke-linecap:butt;stroke-linejoin:miter;stroke-miterlimit:4;stroke-dasharray:none;stroke-opacity:1"
       d="m 17.140358,178.24521 c 0,0 -17.7826258,-169.1145652 39.904953,-168.4124293 C 113.72778,10.522681 92.215779,176.21614 92.215779,176.21614 Z"
       id="path815"
       inkscape:connector-curvature="0"
       sodipodi:nodetypes="csc" />
    <path
       id="path1631-4"
       style="fill:#ff6600;stroke:#000000;stroke-width:0.47825524px;stroke-linecap:butt;stroke-linejoin:miter;stroke-opacity:1"
       d="m 92.215779,176.21614 1.581035,30.90026 c 0,0 -7.19722,-16.91346 -7.19722,-15.11417 0,1.79931 3.238748,31.30791 3.238748,31.30791 l -6.477495,-15.11416 1.7993,30.58821 -6.117631,-12.95501 -1.799308,27.70932 -24.978049,27.93908 m 0,0 -20.152232,-25.90999 -1.799307,-27.70933 -6.117639,12.955 1.799305,-30.5882 -6.477499,15.11416 c 0,0 3.23875,-29.50861 3.23875,-31.30792 0,-1.7993 -7.197224,15.11418 -7.197224,15.11418 l 1.581049,-30.90027 75.075417,-2.02907"
       inkscape:connector-curvature="0"
       sodipodi:nodetypes="ccsccccccccscccccc" />
    <path
       id="path1631-4-36"
       style="fill:#ffd42a;stroke:#000000;stroke-width:0.36003613px;stroke-linecap:butt;stroke-linejoin:miter;stroke-opacity:1"
       d="m 81.549725,176.82588 1.155838,23.95396 c 0,0 -5.261654,-13.11135 -5.261654,-11.71655 0,1.39484 2.367738,24.27 2.367738,24.27 l -4.735479,-11.71655 1.315411,23.71208 -4.472398,-10.04276 -1.315429,21.48035 -18.260614,21.65845 m 0,0 -14.732622,-20.08551 -1.315427,-21.48035 -4.472397,10.04275 1.315409,-23.71206 -4.735479,11.71655 c 0,0 2.36774,-22.87516 2.36774,-24.27001 0,-1.39481 -5.261645,11.71657 -5.261645,11.71657 l 1.155834,-23.95399 54.885174,-1.57293"
       inkscape:connector-curvature="0"
       sodipodi:nodetypes="ccsccccccccscccccc" />
    <path
       id="path1631-4-3"
       style="fill:#ffdb00;fill-opacity:1;stroke:#000000;stroke-width:0.27634552px;stroke-linecap:butt;stroke-linejoin:miter;stroke-opacity:1"
       d="m 75.155713,177.19538 0.872463,18.69572 c 0,0 -3.97163,-10.2332 -3.97163,-9.14459 0,1.08866 1.787225,18.94238 1.787225,18.94238 l -3.574487,-9.1446 0.992922,18.50691 -3.37589,-7.83821 -0.99292,16.76507 -13.783641,16.90411 m 0,0 -11.120605,-15.67644 -0.99292,-16.76509 -3.37589,7.83822 0.992903,-18.5069 -3.574469,9.14458 c 0,0 1.787244,-17.85372 1.787244,-18.94237 0,-1.08862 -3.971667,9.14461 -3.971667,9.14461 l 0.872482,-18.69574 41.42888,-1.22766"
       inkscape:connector-curvature="0"
       sodipodi:nodetypes="ccsccccccccscccccc" />
    <path
       style="fill:#ff0000;stroke:#000000;stroke-width:0.47825524px;stroke-linecap:butt;stroke-linejoin:miter;stroke-opacity:1"
       d="m 17.140357,178.24521 -1.490972,-18.76058 c -2.998845,2.03922 -8.3775605,5.85965 -9.0862615,11.71577 v 6.63716 z"
       id="path1671"
       inkscape:connector-curvature="0"
       sodipodi:nodetypes="ccccc" />
    <path
       style="fill:#ff0000;stroke:#000000;stroke-width:0.47825524px;stroke-linecap:butt;stroke-linejoin:miter;stroke-opacity:1"
       d="m 92.216122,176.21617 1.849895,-18.4914 c 2.998827,2.03923 8.018633,5.59047 8.727333,11.44659 v 6.63716 z"
       id="path1671-7"
       inkscape:connector-curvature="0"
       sodipodi:nodetypes="ccccc" />
    <ellipse
       style="fill:#999999;fill-opacity:1;stroke:#000000;stroke-width:0.48913178;stroke-linecap:square;stroke-miterlimit:4;stroke-dasharray:none;stroke-dashoffset:0;stroke-opacity:1"
       id="path1688"
       cx="56.859859"
       cy="65.998878"
       rx="13.683188"
       ry="13.974428" />
    <ellipse
       style="fill:#c5ffff;fill-opacity:1;stroke:#000000;stroke-width:0.40986401;stroke-linecap:square;stroke-miterlimit:4;stroke-dasharray:none;stroke-dashoffset:0;stroke-opacity:1"
       id="path1688-0"
       cx="56.787029"
       cy="65.878876"
       rx="11.465718"
       ry="11.709761" />
  </g>
</svg>
