<?xml version="1.0" encoding="utf-8"?>
<!-- Generator: Adobe Illustrator 16.0.0, SVG Export Plug-In . SVG Version: 6.00 Build 0)  -->
<!DOCTYPE svg PUBLIC "-//W3C//DTD SVG 1.1//EN" "http://www.w3.org/Graphics/SVG/1.1/DTD/svg11.dtd">
<svg version="1.1" id="Layer_1" xmlns="http://www.w3.org/2000/svg" xmlns:xlink="http://www.w3.org/1999/xlink" x="0px" y="0px"
	 width="300px" height="120px" viewBox="0 0 300 120" enable-background="new 0 0 300 120" xml:space="preserve">
<rect width="300" height="120"/>
<g>
	<radialGradient id="SVGID_1_" cx="-3.5908" cy="62.8301" r="85.666" gradientUnits="userSpaceOnUse">
		<stop  offset="0" style="stop-color:#FFFF00"/>
		<stop  offset="0.103" style="stop-color:#F9F901;stop-opacity:0.897"/>
		<stop  offset="0.2379" style="stop-color:#E9E903;stop-opacity:0.7621"/>
		<stop  offset="0.3905" style="stop-color:#CFCE07;stop-opacity:0.6095"/>
		<stop  offset="0.5562" style="stop-color:#A9A80C;stop-opacity:0.4438"/>
		<stop  offset="0.7324" style="stop-color:#7A7713;stop-opacity:0.2676"/>
		<stop  offset="0.9147" style="stop-color:#403D1C;stop-opacity:0.0853"/>
		<stop  offset="1" style="stop-color:#231F20;stop-opacity:0"/>
	</radialGradient>
	<circle fill="url(#SVGID_1_)" cx="-3.59" cy="62.83" r="85.67"/>
	<path fill="none" stroke="#FFFFFF" stroke-miterlimit="10" d="M-3.59,214.08c-83.4,0-151.25-67.85-151.25-151.25
		c0-83.4,67.85-151.25,151.25-151.25c83.4,0,151.25,67.85,151.25,151.25C147.66,146.23,79.81,214.08-3.59,214.08z"/>
	<linearGradient id="SVGID_2_" gradientUnits="userSpaceOnUse" x1="-2.3931" y1="34.4204" x2="-6.2931" y2="126.9629">
		<stop  offset="0" style="stop-color:#FFFF00"/>
		<stop  offset="1" style="stop-color:#FFC700"/>
	</linearGradient>
	<circle fill="url(#SVGID_2_)" cx="-3.59" cy="62.83" r="46.25"/>
</g>
<linearGradient id="SVGID_3_" gradientUnits="userSpaceOnUse" x1="112.25" y1="66.25" x2="166.7552" y2="66.25">
	<stop  offset="0" style="stop-color:#7B0042;stop-opacity:0"/>
	<stop  offset="0.2" style="stop-color:#7B0042"/>
	<stop  offset="0.8" style="stop-color:#0700BE"/>
	<stop  offset="1" style="stop-color:#0700BE;stop-opacity:0"/>
</linearGradient>
<ellipse fill="url(#SVGID_3_)" cx="139.63" cy="66.25" rx="25.38" ry="13"/>
<g opacity="0.7">
	<g>
		<g>
			<rect x="164.08" y="58.99" fill="none" width="2.59" height="2.59"/>
			<g opacity="0.75">
				<g>
					<circle fill="#0000F7" cx="165.37" cy="60.28" r="1.29"/>
				</g>
			</g>
		</g>
		<g>
			<rect x="153.73" y="57.09" fill="none" width="2.98" height="2.98"/>
			<g opacity="0.75">
				<g>
					<circle fill="#0000F7" cx="155.22" cy="58.58" r="1.49"/>
				</g>
			</g>
		</g>
		<g>
			<rect x="140.64" y="54.07" fill="none" width="3.05" height="3.05"/>
			<g opacity="0.75">
				<g>
					<circle fill="#0000F7" cx="142.17" cy="55.6" r="1.53"/>
				</g>
			</g>
		</g>
	</g>
</g>
<g opacity="0.7">
	<g>
		<g>
			<rect x="159.94" y="63.17" fill="none" width="4.14" height="4.14"/>
			<g opacity="0.75">
				<g>
					<circle fill="#0000F7" cx="162.01" cy="65.24" r="2.07"/>
				</g>
			</g>
		</g>
		<g>
			<rect x="147.9" y="61.81" fill="none" width="4.3" height="4.3"/>
			<g opacity="0.75">
				<g>
					<circle fill="#0000F7" cx="150.05" cy="63.96" r="2.15"/>
				</g>
			</g>
		</g>
		<g>
			<rect x="141.79" y="64.8" fill="none" width="3.14" height="3.14"/>
			<g opacity="0.75">
				<g>
					<circle fill="#0000F7" cx="143.36" cy="66.37" r="1.57"/>
				</g>
			</g>
		</g>
	</g>
</g>
<g opacity="0.7">
	<g>
		<g>
			<rect x="153.25" y="72.1" fill="none" width="3.99" height="3.99"/>
			<g opacity="0.75">
				<g>
					<circle fill="#0000F7" cx="155.24" cy="74.1" r="2"/>
				</g>
			</g>
		</g>
		<g>
			<rect x="147.14" y="71.27" fill="none" width="4.16" height="4.16"/>
			<g opacity="0.75">
				<g>
					<circle fill="#0000F7" cx="149.22" cy="73.35" r="2.08"/>
				</g>
			</g>
		</g>
		<g>
			<rect x="140.54" y="69.77" fill="none" width="3.67" height="3.67"/>
			<g opacity="0.75">
				<g>
					<circle fill="#0000F7" cx="142.38" cy="71.61" r="1.84"/>
				</g>
			</g>
		</g>
	</g>
</g>
<g opacity="0.7">
	<g>
		<g>
			<rect x="160.77" y="62.62" fill="none" width="3.23" height="3.23"/>
			<g opacity="0.75">
				<g>
					<circle fill="#0000F7" cx="162.38" cy="64.24" r="1.61"/>
				</g>
			</g>
		</g>
		<g>
			<rect x="153.13" y="57.27" fill="none" width="3.19" height="3.19"/>
			<g opacity="0.75">
				<g>
					<circle fill="#0000F7" cx="154.72" cy="58.86" r="1.59"/>
				</g>
			</g>
		</g>
		<g>
			<rect x="148.15" y="51.62" fill="none" width="4.45" height="4.45"/>
			<g opacity="0.75">
				<g>
					<circle fill="#0000F7" cx="150.37" cy="53.84" r="2.22"/>
				</g>
			</g>
		</g>
	</g>
</g>
<g opacity="0.7">
	<g>
		<g>
			<rect x="158.76" y="52.24" fill="none" width="3.16" height="3.16"/>
			<g opacity="0.75">
				<g>
					<circle fill="#0000F7" cx="160.34" cy="53.82" r="1.58"/>
				</g>
			</g>
		</g>
	</g>
</g>
<g opacity="0.9">
	<g>
		<g>
			<rect x="158.55" y="68.26" fill="none" width="2.56" height="2.56"/>
			<g opacity="0.75">
				<g>
					<circle fill="#0000F7" cx="159.83" cy="69.54" r="1.28"/>
				</g>
			</g>
		</g>
		<g>
			<rect x="151.26" y="64.04" fill="none" width="3.48" height="3.48"/>
			<g opacity="0.75">
				<g>
					<circle fill="#0000F7" cx="153" cy="65.78" r="1.74"/>
				</g>
			</g>
		</g>
	</g>
</g>
<g opacity="0.7">
	<g>
		<g>
			<rect x="172.57" y="62.85" fill="none" width="3.02" height="3.02"/>
			<g opacity="0.75">
				<g>
					<circle fill="#0000F7" cx="174.08" cy="64.36" r="1.51"/>
				</g>
			</g>
		</g>
		<g>
			<rect x="157.83" y="61.73" fill="none" width="3.55" height="3.55"/>
			<g opacity="0.75">
				<g>
					<circle fill="#0000F7" cx="159.61" cy="63.5" r="1.77"/>
				</g>
			</g>
		</g>
	</g>
</g>
<g opacity="0.7">
	<g>
		<g>
			<rect x="171.29" y="63.88" fill="none" width="4.68" height="4.68"/>
			<g opacity="0.75">
				<g>
					<circle fill="#0000F7" cx="173.63" cy="66.22" r="2.34"/>
				</g>
			</g>
		</g>
		<g>
			<rect x="159.77" y="60.53" fill="none" width="2.65" height="2.65"/>
			<g opacity="0.75">
				<g>
					<circle fill="#0000F7" cx="161.1" cy="61.86" r="1.33"/>
				</g>
			</g>
		</g>
	</g>
</g>
<g opacity="0.9">
	<g>
		<g>
			<rect x="159.4" y="67.89" fill="none" width="3.66" height="3.66"/>
			<g opacity="0.75">
				<g>
					<circle fill="#0000F7" cx="161.23" cy="69.72" r="1.83"/>
				</g>
			</g>
		</g>
		<g>
			<rect x="154.87" y="65.53" fill="none" width="3.12" height="3.12"/>
			<g opacity="0.75">
				<g>
					<circle fill="#0000F7" cx="156.43" cy="67.09" r="1.56"/>
				</g>
			</g>
		</g>
	</g>
</g>
<g id="New_Symbol">
	<g opacity="0.7">
		<g>
			<g>
				<rect x="122.73" y="55.33" fill="none" width="4.42" height="4.42"/>
				<circle fill="#990033" cx="124.93" cy="57.53" r="2.21"/>
			</g>
			<g>
				<rect x="107.92" y="57.79" fill="none" width="2.62" height="2.62"/>
				<circle fill="#990033" cx="109.23" cy="59.1" r="1.31"/>
			</g>
		</g>
	</g>
	<g opacity="0.7">
		<g>
			<g>
				<rect x="121.21" y="58.02" fill="none" width="4.45" height="4.45"/>
				<circle fill="#990033" cx="123.44" cy="60.24" r="2.23"/>
			</g>
			<g>
				<rect x="107.7" y="66.88" fill="none" width="4.97" height="4.97"/>
				<circle fill="#990033" cx="110.19" cy="69.36" r="2.48"/>
			</g>
		</g>
	</g>
	<g opacity="0.7">
		<g>
			<g>
				<rect x="115.05" y="73.71" fill="none" width="4.86" height="4.86"/>
				<circle fill="#990033" cx="117.48" cy="76.14" r="2.43"/>
			</g>
			<g>
				<rect x="126.01" y="70.48" fill="none" width="3.61" height="3.61"/>
				<circle fill="#990033" cx="127.81" cy="72.29" r="1.8"/>
			</g>
		</g>
	</g>
	<g opacity="0.9">
		<g>
			<g>
				<rect x="110.53" y="70.12" fill="none" width="3.7" height="3.7"/>
				<circle fill="#990033" cx="112.38" cy="71.97" r="1.85"/>
			</g>
			<g>
				<rect x="117.48" y="65.04" fill="none" width="3.12" height="3.12"/>
				<circle fill="#990033" cx="119.04" cy="66.6" r="1.56"/>
			</g>
			<g>
				<rect x="122.4" y="63.67" fill="none" width="3.66" height="3.66"/>
				<circle fill="#990033" cx="124.23" cy="65.5" r="1.83"/>
			</g>
		</g>
	</g>
	<g opacity="0.7">
		<g>
			<g>
				<rect x="127.58" y="60.31" fill="none" width="2.69" height="2.69"/>
				<circle fill="#990033" cx="128.93" cy="61.66" r="1.35"/>
			</g>
			<g>
				<rect x="132.26" y="59.08" fill="none" width="4.54" height="4.54"/>
				<circle fill="#990033" cx="134.53" cy="61.35" r="2.27"/>
			</g>
		</g>
	</g>
</g>
</svg>
