<?xml version="1.0" encoding="UTF-8" standalone="no"?>
<!-- Created with Inkscape (http://www.inkscape.org/) -->

<svg
   xmlns:dc="http://purl.org/dc/elements/1.1/"
   xmlns:cc="http://creativecommons.org/ns#"
   xmlns:rdf="http://www.w3.org/1999/02/22-rdf-syntax-ns#"
   xmlns:svg="http://www.w3.org/2000/svg"
   xmlns="http://www.w3.org/2000/svg"
   xmlns:sodipodi="http://sodipodi.sourceforge.net/DTD/sodipodi-0.dtd"
   xmlns:inkscape="http://www.inkscape.org/namespaces/inkscape"
   width="137.85875mm"
   height="139.73997mm"
   viewBox="0 0 137.85875 139.73997"
   version="1.1"
   id="svg2152"
   sodipodi:docname="skull.svg"
   inkscape:version="0.92.4 (5da689c313, 2019-01-14)">
  <defs
     id="defs2146">
    <inkscape:path-effect
       effect="spiro"
       id="path-effect2183"
       is_visible="true" />
    <inkscape:path-effect
       effect="spiro"
       id="path-effect2156"
       is_visible="true" />
  </defs>
  <sodipodi:namedview
     id="base"
     pagecolor="#ffffff"
     bordercolor="#666666"
     borderopacity="1.0"
     inkscape:pageopacity="0.0"
     inkscape:pageshadow="2"
     inkscape:zoom="1.4283557"
     inkscape:cx="240.52486"
     inkscape:cy="344.61259"
     inkscape:document-units="mm"
     inkscape:current-layer="layer1"
     showgrid="false"
     inkscape:window-width="2560"
     inkscape:window-height="1377"
     inkscape:window-x="-8"
     inkscape:window-y="-8"
     inkscape:window-maximized="1" />
  <metadata
     id="metadata2149">
    <rdf:RDF>
      <cc:Work
         rdf:about="">
        <dc:format>image/svg+xml</dc:format>
        <dc:type
           rdf:resource="http://purl.org/dc/dcmitype/StillImage" />
        <dc:title></dc:title>
      </cc:Work>
    </rdf:RDF>
  </metadata>
  <g
     inkscape:label="Layer 1"
     inkscape:groupmode="layer"
     id="layer1"
     transform="translate(-6.6500529,-152.55817)">
    <path
       style="fill:#ffffff;stroke:#000000;stroke-width:0.5;stroke-linecap:butt;stroke-linejoin:miter;stroke-miterlimit:4;stroke-dasharray:none;stroke-opacity:1"
       d="M 130.52817,283.55346 C 96.028087,266.23812 24.591463,232.79653 24.591463,232.79653 l 0.421241,-3.15915 -5.897066,-0.63184 v 2.94854 l -6.107714,2.52732 c 0,0 -2.460157,-2.06056 -3.7909628,-1.68487 -1.3118221,0.37033 -2.3325043,2.00671 -2.3167233,3.36973 0.036197,3.11733 2.4626057,6.78251 5.4758771,7.58198 0.819905,0.21744 2.316697,-1.05305 2.316697,-1.05305 l -1.474241,-3.79099 6.318256,-2.3167 c 0,0 76.055311,36.81324 108.674643,51.80998 1.13027,0.51964 -0.1638,3.32199 1.05305,3.58037 3.60511,0.76548 8.70766,-5.07925 7.16072,-8.42439 -0.82507,-1.78415 -4.14023,0.88174 -5.89707,0 z"
       id="path2185"
       inkscape:connector-curvature="0"
       sodipodi:nodetypes="scccccssscccssss" />
    <path
       style="fill:#ffffff;stroke:#000000;stroke-width:0.5;stroke-linecap:butt;stroke-linejoin:miter;stroke-miterlimit:4;stroke-dasharray:none;stroke-opacity:1"
       d="M 20.630685,281.43704 C 54.601603,265.18003 126.56739,230.68011 126.56739,230.68011 l -0.42124,-3.15916 5.89707,-0.63186 v 2.94856 l 6.1077,2.52732 c 0,0 2.46016,-2.06056 3.79097,-1.68486 1.31182,0.37033 2.3325,2.0067 2.31672,3.36972 -0.0362,3.11733 -2.46261,6.78252 -5.47588,7.58195 -0.8199,0.21745 -2.31669,-1.05305 -2.31669,-1.05305 l 1.47424,-3.79096 -6.31825,-2.3167 c 0,0 -76.319894,36.28408 -108.674648,51.80998 -1.121547,0.53819 0.163799,3.32199 -1.053051,3.58037 -3.605109,0.76545 -8.70766,-5.07927 -7.160713,-8.42438 0.825061,-1.78416 4.123952,0.84855 5.897067,0 z"
       id="path2185-1"
       inkscape:connector-curvature="0"
       sodipodi:nodetypes="scccccssscccssss" />
    <path
       style="fill:#ffffff;stroke:#000000;stroke-width:0.5;stroke-linecap:butt;stroke-linejoin:miter;stroke-miterlimit:4;stroke-dasharray:none;stroke-opacity:1"
       d="m 86.901056,251.67578 -0.984302,-5.90576 -3.321989,-0.24609 v 4.92146 l -1.230366,-4.6754 h -3.198945 v 4.30629 h -1.722516 l -0.61517,-4.67539 H 72.25969 l -0.246089,4.30629 H 70.16804 l -0.122914,-3.93719 h -3.198971 l -0.122914,4.42934 h -1.35341 l -0.246089,-4.55236 -3.568077,-0.24608 -0.122915,6.52093 z"
       id="path2164-5"
       inkscape:connector-curvature="0" />
    <path
       style="fill:#ffffff;stroke:#000000;stroke-width:0.5;stroke-linecap:butt;stroke-linejoin:miter;stroke-miterlimit:4;stroke-dasharray:none;stroke-opacity:1"
       d="m 59.808383,236.36995 0.984302,5.90576 3.32199,0.24609 v -4.92146 l 1.230365,4.6754 h 3.198945 v -4.30629 h 1.722517 l 0.615169,4.6754 h 3.568078 l 0.246089,-4.30629 h 1.845561 l 0.122914,3.93718 h 3.198971 l 0.122914,-4.42934 h 1.35341 l 0.246089,4.55236 3.568078,0.24609 0.122914,-6.52094 z"
       id="path2164"
       inkscape:connector-curvature="0" />
    <path
       style="fill:#ffffff;stroke:#000000;stroke-width:0.19200394;stroke-linecap:butt;stroke-linejoin:miter;stroke-miterlimit:4;stroke-dasharray:none;stroke-opacity:1"
       d="m 160.28958,193.54997 c -0.88336,-2.66545 -1.43367,-5.44109 -1.63408,-8.24194 -0.19872,-2.77715 -0.0507,-5.59619 0.65581,-8.28932 0.70648,-2.69313 1.9871,-5.26031 3.87991,-7.3022 2.70768,-2.92094 6.65143,-4.65361 10.6342,-4.68468 3.98278,-0.0311 7.94863,1.63652 10.72145,4.4957 1.59686,1.6466 2.79556,3.64997 3.68527,5.76413 2.46854,5.8658 2.53793,12.70062 0.18899,18.61533 l -6.42559,1.98438 c -0.15467,0.0478 -0.30969,0.0985 -0.45093,0.17762 -0.14124,0.0791 -0.26727,0.18562 -0.36667,0.3134 -0.0994,0.12777 -0.17183,0.27491 -0.22606,0.42744 -0.0542,0.15253 -0.0913,0.3105 -0.13278,0.46697 -0.0415,0.15647 -0.0885,0.31247 -0.16064,0.4574 -0.0721,0.14492 -0.17046,0.27808 -0.29587,0.38045 -0.1254,0.10237 -0.27654,0.17177 -0.43482,0.20572 -0.15828,0.034 -0.32175,0.0323 -0.48357,0.0278 l -10.20536,-0.28348 c -0.20075,-0.006 -0.40314,-0.0146 -0.59751,-0.0652 -0.19436,-0.0505 -0.37854,-0.14213 -0.5321,-0.27156 -0.15356,-0.12942 -0.27513,-0.29417 -0.36709,-0.4727 -0.0919,-0.17854 -0.15552,-0.37015 -0.21421,-0.56221 -0.0587,-0.19206 -0.11368,-0.38571 -0.19033,-0.57134 -0.0766,-0.18562 -0.1761,-0.36313 -0.30748,-0.51502 -0.13138,-0.15189 -0.29411,-0.27595 -0.47374,-0.36574 -0.17963,-0.0898 -0.37443,-0.14434 -0.56867,-0.19533 z"
       id="path2154"
       inkscape:connector-curvature="0"
       inkscape:path-effect="#path-effect2156"
       inkscape:original-d="m 160.28958,193.54997 c -2.31252,-2.89229 -0.65737,-4.11596 -1.63408,-8.24194 -0.9767,-4.12597 2.83509,-10.23712 4.53572,-15.59152 1.70063,-5.35439 14.30036,0.15723 21.35565,-0.18898 7.05529,-0.34621 2.58311,3.40152 3.68527,5.76413 1.10217,2.36262 0.81922,11.27602 0.18899,18.61533 l -6.42559,1.98438 c -1.2775,0.3741 -1.01584,2.44751 -2.55134,2.45684 l -10.20536,-0.28348 c -1.52259,-0.0423 -1.83676,-2.6478 -3.25113,-3.01906 z"
       sodipodi:nodetypes="ccssccccssc"
       transform="matrix(2.6041133,0,0,2.6041133,-380.78569,-276.9523)" />
    <path
       style="fill:#333333;stroke:#000000;stroke-width:0.5;stroke-linecap:butt;stroke-linejoin:miter;stroke-miterlimit:4;stroke-dasharray:none;stroke-opacity:1"
       d="m 55.771252,215.7689 c -3.105874,-0.53296 -5.943446,-4.23114 -5.905765,-7.3822 0.03203,-2.67789 2.755178,-4.98885 5.167551,-6.15185 2.80864,-1.35404 7.052381,-2.35308 9.350772,-0.24609 1.998943,1.83246 1.737282,5.71139 0.492151,8.12041 -1.6408,3.17452 -5.582698,6.26409 -9.104709,5.65973 z"
       id="path2158"
       inkscape:connector-curvature="0"
       sodipodi:nodetypes="aaaaaa" />
    <path
       style="fill:#333333;stroke:#000000;stroke-width:0.5;stroke-linecap:butt;stroke-linejoin:miter;stroke-miterlimit:4;stroke-dasharray:none;stroke-opacity:1"
       d="m 80.893706,208.65581 c -0.902872,-3.06889 1.009849,-7.11386 3.691096,-8.85864 3.094494,-2.01371 8.282929,-2.1715 11.073315,0.24608 3.39381,2.94039 5.074093,9.82569 2.214642,13.28796 -2.089931,2.53055 -6.697389,1.18263 -9.842924,0.24609 -2.769396,-0.82454 -6.320573,-2.14941 -7.136129,-4.92149 z"
       id="path2160"
       inkscape:connector-curvature="0"
       sodipodi:nodetypes="aaaaaa" />
    <path
       style="fill:#ffffff;stroke:#000000;stroke-width:0.5;stroke-linecap:butt;stroke-linejoin:miter;stroke-miterlimit:4;stroke-dasharray:none;stroke-opacity:1"
       d="m 36.897585,227.19846 3.908687,13.34009 c 0,0 7.295267,7.08788 11.704526,10.82233 2.612759,2.2129 4.631207,5.9541 7.969264,6.7163 7.972987,1.82056 16.620857,1.89126 24.534002,-0.17396 3.780209,-0.98657 5.972482,-3.64977 9.566236,-5.45546 3.593755,-1.80569 10.00693,-7.91195 11.85872,-11.35203 3.09709,-5.75353 3.44526,-13.09226 3.44526,-13.09226 l -2.65596,0.84276 c 0,0 -4.5518,10.006 -8.654039,13.74666 -3.124188,2.84882 -7.198066,5.3137 -11.310003,6.29773 -8.686719,2.07881 -18.658315,3.68224 -26.795987,0 -3.786248,-1.71325 -7.401952,-3.45531 -10.148207,-6.05632 -4.103789,-3.88675 -9.421542,-14.6017 -9.421542,-14.6017 z"
       id="path2162"
       inkscape:connector-curvature="0"
       sodipodi:nodetypes="ccsssssccsssscc" />
    <path
       style="fill:#333333;stroke:#000000;stroke-width:0.19200394;stroke-linecap:butt;stroke-linejoin:miter;stroke-miterlimit:4;stroke-dasharray:none;stroke-opacity:1"
       d="m 174.81398,193.29278 c -0.0703,-0.016 -0.14503,-0.009 -0.21315,0.0143 -0.0681,0.0238 -0.12979,0.0643 -0.18199,0.11411 -0.10438,0.0996 -0.16952,0.23329 -0.21989,0.36851 -0.0504,0.13522 -0.0883,0.27536 -0.14954,0.40602 -0.0612,0.13066 -0.14942,0.25416 -0.27486,0.32547 -0.1152,0.0655 -0.25523,0.0817 -0.38511,0.0554 -0.12988,-0.0263 -0.24969,-0.0931 -0.34862,-0.18125 -0.19786,-0.17632 -0.30925,-0.42842 -0.4002,-0.67735 -0.33045,-0.90444 -0.46346,-1.91519 -0.16404,-2.83036 0.14972,-0.45759 0.40753,-0.88303 0.76342,-1.20729 0.3559,-0.32425 0.81153,-0.54373 1.2905,-0.59256 0.51814,-0.0528 1.04972,0.0966 1.48074,0.38898 0.43103,0.29237 0.7622,0.72245 0.96135,1.2037 0.19916,0.48125 0.26899,1.01174 0.23006,1.53112 -0.0389,0.51937 -0.18467,1.02789 -0.40029,1.50199 -0.12525,0.27539 -0.2843,0.55121 -0.53948,0.71372 -0.12759,0.0813 -0.27759,0.13077 -0.4288,0.12687 -0.15122,-0.004 -0.30287,-0.064 -0.40589,-0.17477 -0.0739,-0.0795 -0.12046,-0.18087 -0.15292,-0.28446 -0.0325,-0.1036 -0.052,-0.21075 -0.0793,-0.31581 -0.0274,-0.10506 -0.0633,-0.20956 -0.1248,-0.29901 -0.0615,-0.0894 -0.15133,-0.16323 -0.25718,-0.18735 z"
       id="path2181"
       inkscape:connector-curvature="0"
       inkscape:path-effect="#path-effect2183"
       inkscape:original-d="m 174.81398,193.29278 c -0.53443,0.0458 -0.51302,1.12543 -1.03943,1.22842 -0.45457,0.0889 -1.19776,-0.34442 -1.13393,-0.80319 0.22972,-1.65111 0.23739,-4.41064 1.88988,-4.63021 1.67252,-0.22223 2.06021,5.72978 2.27186,4.62579 0.40924,-2.13463 -0.81161,0.3526 -1.37417,0.66582 -0.36352,0.2024 -0.19966,-1.12217 -0.61421,-1.08663 z"
       sodipodi:nodetypes="sssssss"
       transform="matrix(2.6041133,0,0,2.6041133,-381.54694,-275.81043)" />
  </g>
</svg>
