<?xml version="1.0" encoding="UTF-8" standalone="no"?>
<!-- Created with Inkscape (http://www.inkscape.org/) -->

<svg
   xmlns:dc="http://purl.org/dc/elements/1.1/"
   xmlns:cc="http://creativecommons.org/ns#"
   xmlns:rdf="http://www.w3.org/1999/02/22-rdf-syntax-ns#"
   xmlns:svg="http://www.w3.org/2000/svg"
   xmlns="http://www.w3.org/2000/svg"
   xmlns:xlink="http://www.w3.org/1999/xlink"
   xmlns:sodipodi="http://sodipodi.sourceforge.net/DTD/sodipodi-0.dtd"
   xmlns:inkscape="http://www.inkscape.org/namespaces/inkscape"
   width="167.61638mm"
   height="262.74026mm"
   viewBox="0 0 167.61638 262.74026"
   version="1.1"
   id="svg8"
   inkscape:version="0.92.4 (5da689c313, 2019-01-14)"
   sodipodi:docname="suit.svg">
  <defs
     id="defs2">
    <inkscape:path-effect
       effect="spiro"
       id="path-effect1089"
       is_visible="true" />
    <inkscape:path-effect
       effect="spiro"
       id="path-effect1085"
       is_visible="true" />
    <inkscape:path-effect
       effect="spiro"
       id="path-effect1081"
       is_visible="true" />
    <inkscape:path-effect
       effect="spiro"
       id="path-effect1077"
       is_visible="true" />
    <inkscape:path-effect
       effect="spiro"
       id="path-effect1073"
       is_visible="true" />
    <inkscape:path-effect
       effect="spiro"
       id="path-effect1069"
       is_visible="true" />
    <inkscape:path-effect
       effect="spiro"
       id="path-effect1065"
       is_visible="true" />
    <inkscape:path-effect
       effect="spiro"
       id="path-effect1061"
       is_visible="true" />
    <inkscape:path-effect
       effect="spiro"
       id="path-effect1057"
       is_visible="true" />
    <inkscape:path-effect
       effect="spiro"
       id="path-effect1053"
       is_visible="true" />
    <inkscape:path-effect
       effect="spiro"
       id="path-effect1049"
       is_visible="true" />
    <inkscape:path-effect
       effect="spiro"
       id="path-effect1045"
       is_visible="true" />
    <inkscape:path-effect
       effect="spiro"
       id="path-effect1041"
       is_visible="true" />
    <inkscape:path-effect
       effect="spiro"
       id="path-effect1037"
       is_visible="true" />
    <inkscape:path-effect
       effect="spiro"
       id="path-effect1033"
       is_visible="true" />
    <inkscape:path-effect
       effect="spiro"
       id="path-effect1029"
       is_visible="true" />
    <inkscape:path-effect
       effect="spiro"
       id="path-effect1025"
       is_visible="true" />
    <inkscape:path-effect
       effect="spiro"
       id="path-effect1021"
       is_visible="true" />
    <inkscape:path-effect
       effect="spiro"
       id="path-effect1017"
       is_visible="true" />
    <inkscape:path-effect
       effect="spiro"
       id="path-effect1013"
       is_visible="true" />
    <inkscape:path-effect
       effect="spiro"
       id="path-effect1009"
       is_visible="true" />
    <inkscape:path-effect
       effect="spiro"
       id="path-effect1005"
       is_visible="true" />
    <inkscape:path-effect
       effect="spiro"
       id="path-effect1001"
       is_visible="true" />
    <inkscape:path-effect
       effect="spiro"
       id="path-effect997"
       is_visible="true" />
    <linearGradient
       inkscape:collect="always"
       id="linearGradient904">
      <stop
         style="stop-color:#ffffff;stop-opacity:1"
         offset="0"
         id="stop900" />
      <stop
         style="stop-color:#000000;stop-opacity:1"
         offset="1"
         id="stop902" />
    </linearGradient>
    <radialGradient
       inkscape:collect="always"
       xlink:href="#linearGradient904"
       id="radialGradient906"
       cx="-59.720169"
       cy="100.31123"
       fx="-59.720169"
       fy="100.31123"
       r="25.789389"
       gradientTransform="matrix(0.1122118,-1.0579995,0.85802998,0.09100297,26.878018,-56.018904)"
       gradientUnits="userSpaceOnUse" />
    <inkscape:path-effect
       effect="spiro"
       id="path-effect1001-4"
       is_visible="true" />
    <inkscape:path-effect
       effect="spiro"
       id="path-effect997-7"
       is_visible="true" />
  </defs>
  <sodipodi:namedview
     id="base"
     pagecolor="#ffffff"
     bordercolor="#666666"
     borderopacity="1.0"
     inkscape:pageopacity="0.0"
     inkscape:pageshadow="2"
     inkscape:zoom="0.70710678"
     inkscape:cx="779.30133"
     inkscape:cy="411.86047"
     inkscape:document-units="mm"
     inkscape:current-layer="layer1"
     showgrid="false"
     inkscape:window-width="2560"
     inkscape:window-height="1377"
     inkscape:window-x="-8"
     inkscape:window-y="-8"
     inkscape:window-maximized="1" />
  <metadata
     id="metadata5">
    <rdf:RDF>
      <cc:Work
         rdf:about="">
        <dc:format>image/svg+xml</dc:format>
        <dc:type
           rdf:resource="http://purl.org/dc/dcmitype/StillImage" />
        <dc:title></dc:title>
      </cc:Work>
    </rdf:RDF>
  </metadata>
  <g
     inkscape:label="Layer 1"
     inkscape:groupmode="layer"
     id="layer1"
     transform="translate(-16.824768,1.0839904)">
    <path
       id="path10-6"
       style="fill:#ffffff;stroke:#000000;stroke-width:0.26458332px;stroke-linecap:butt;stroke-linejoin:miter;stroke-opacity:1"
       d="m 165.62985,118.42278 c 0,0 -3.96562,-32.984722 -11.84079,-47.145437 -2.8893,-5.195395 -7.04878,-10.231282 -12.40235,-12.815756 -6.35941,-3.070055 -17.50795,4.022236 -21.08398,-2.067057 -2.96887,-5.05544 5.54135,-10.45193 7.028,-16.123047 1.72115,-6.565603 4.06479,-13.770364 2.06705,-20.257161 -2.33172,-7.571302 -7.97479,-15.1638221 -15.29622,-18.1901041 -11.63383,-4.808802 -26.813798,-3.149268 -37.620439,3.307292 -4.954415,2.960076 -7.854323,8.9401971 -9.508464,14.4694011 -0.868921,2.904493 -0.448648,6.096748 0,9.095051 1.045035,6.983936 2.854383,14.038926 6.201172,20.257162 1.94839,3.620052 9.606541,5.78926 7.854818,9.508463 -1.409229,2.992031 -6.681125,-0.660089 -9.921875,0 -5.868813,1.195383 -11.99405,3.124352 -16.536459,7.027995 -5.771919,4.960255 -9.181965,12.356436 -11.988933,19.430339 -4.242368,10.691289 -4.690015,22.521549 -6.945313,33.800509 -1.268394,6.34337 0.808768,14.41531 -3.704167,19.05001 -3.403522,3.49536 -11.234778,-0.63057 -14.287499,3.175 -0.882972,1.10073 -0.94933,3.1893 0,4.23334 2.503262,2.75299 8.679435,-1.7569 11.1125,1.05833 3.792398,4.38807 -4.390856,12.7631 -0.876978,17.37722 0.985271,1.29377 3.419078,1.97475 4.762499,1.05833 4.400595,-3.00189 -2.861023,-15.91452 2.464478,-15.78972 5.469989,0.12819 -2.790725,13.29441 1.768856,16.31889 1.53463,1.01795 4.201841,-0.10305 5.291666,-1.5875 2.801834,-3.81639 -4.848936,-13.40926 -0.181355,-14.20222 5.106448,-0.86751 0.73885,11.7071 4.943855,14.73139 0.859195,0.61794 2.404731,0.72578 3.175001,0 3.58023,-3.37344 -3.930261,-13.68806 0.876978,-14.73139 3.315715,-0.71962 1.59622,7.77661 4.7625,8.99583 1.926676,0.74189 5.110101,-0.17827 5.820833,-2.11666 1.468667,-4.00551 -4.128222,-7.47041 -6.35,-11.1125 -2.191185,-3.59194 -5.809784,-6.51397 -6.879167,-10.58334 -1.437385,-5.46975 -0.02133,-11.38189 1.058333,-16.93334 2.55565,-13.14076 2.124943,-29.891509 12.700001,-38.099991 1.410011,-1.094467 3.816575,-1.308387 5.341276,-0.380338 4.255816,2.590414 4.688285,8.899291 5.905152,13.73059 4.954004,19.668759 0.02084,35.710919 5.306566,60.617329 0,0 -4.513727,93.54855 -0.694531,94.83659 8.280604,2.79267 18.241659,15.73245 28.045836,12.7 5.51991,-1.70732 19.16672,-10.01268 8.99583,-14.81667 -10.6245,-5.01824 -9.06982,0.42244 -19.049999,-6.35 -9.98018,-6.77244 1.670547,-62.90609 5.308199,-82.55 0.86777,-4.68609 15.92109,-7.82923 15.52774,-2.59623 -2.21301,29.44111 -11.65195,57.65544 -4.41524,84.08789 0,0 18.24166,15.73245 28.04584,12.7 5.51991,-1.70731 10.98627,-9.39242 8.99584,-14.81667 -2.30584,-6.28378 -15.29705,-0.8076 -19.05001,-6.35 -12.97804,-19.16611 3.97269,-46.17433 4.06797,-69.32083 0.0694,-16.85536 -0.99687,-33.71823 -2.54662,-50.50234 -0.79263,-8.58433 -4.24604,-17.047573 -3.44915,-25.631509 0.33182,-3.574341 3.37638,-10.226155 3.37638,-10.226155 0,0 5.57481,2.303211 7.36604,4.570692 8.29834,10.504694 10.14435,24.959232 12.7,38.099992 1.07963,5.55145 2.49572,11.46359 1.05833,16.93334 -1.06938,4.06937 -4.68798,6.9914 -6.87917,10.58334 -2.22178,3.64209 -7.81866,7.10699 -6.35,11.1125 0.71074,1.93839 3.89416,2.85855 5.82084,2.11666 3.16628,-1.21922 1.46084,-9.77738 4.7625,-8.99583 4.30535,1.01914 -2.87041,10.17593 0.29233,13.26976 0.75655,0.74006 2.29442,0.58707 3.175,0 3.98695,-2.65808 0.86008,-14.35006 5.5285,-13.26976 4.145,0.95918 -3.20205,9.2525 -0.766,12.74059 1.05442,1.5098 3.73249,2.56745 5.29166,1.5875 4.2453,-2.66821 -2.66021,-14.92407 2.35351,-14.85726 4.81653,0.0642 -2.06607,11.5653 1.87983,14.32809 1.33215,0.93272 3.75661,0.21948 4.7625,-1.05833 3.28202,-4.16929 -3.82582,-11.95717 -0.29233,-15.91559 2.47788,-2.77586 8.60924,1.69466 11.1125,-1.05833 0.94933,-1.04404 0.88297,-3.13261 0,-4.23334 -3.05272,-3.80557 -10.88398,0.32036 -14.2875,-3.175 -4.51294,-4.6347 -3.70417,-19.05001 -3.70417,-19.05001"
       inkscape:connector-curvature="0"
       sodipodi:nodetypes="caaaaaaaaaaaaaaaaaaaaaaaaaaaaaaaaaaaassaszsssaaaaaacaaaaaaaaaaaaaaaaaaac" />
    <path
       style="fill:url(#radialGradient906);fill-opacity:1;stroke:#000000;stroke-width:0.26499999;stroke-linecap:butt;stroke-linejoin:miter;stroke-miterlimit:4;stroke-dasharray:none;stroke-opacity:1"
       d="m 83.095704,49.366537 c 7.334491,4.905491 18.406776,2.783028 26.458336,-0.82682 6.75985,-3.03072 14.58481,-8.749131 15.29622,-16.12305 C 125.88552,21.686039 116.98758,10.226278 107.48698,5.13151 101.29215,1.8094891 92.593317,2.2145093 86.402996,5.544921 79.771609,9.1126276 74.498654,16.673603 73.587241,24.148437 c -1.087339,8.917665 2.041011,20.223682 9.508463,25.2181 z"
       id="path34"
       inkscape:connector-curvature="0"
       sodipodi:nodetypes="aaaaaaa" />
    <g
       id="g1204">
      <path
         sodipodi:nodetypes="csc"
         inkscape:connector-curvature="0"
         id="path910"
         d="m 75.082338,102.82535 c 0,0 19.252632,0.71077 29.372922,0.17539 8.11383,-0.42923 25.57269,-2.89987 25.57269,-2.89987"
         style="fill:none;stroke:#000000;stroke-width:0.1;stroke-linecap:butt;stroke-linejoin:miter;stroke-miterlimit:4;stroke-dasharray:none;stroke-opacity:1" />
      <path
         sodipodi:nodetypes="csc"
         inkscape:connector-curvature="0"
         id="path910-2"
         d="m 75.703344,110.90868 c 0,0 20.375164,1.8333 30.495446,1.29792 8.11383,-0.42923 25.40976,-4.0322 25.40976,-4.0322"
         style="fill:none;stroke:#000000;stroke-width:0.1;stroke-linecap:butt;stroke-linejoin:miter;stroke-miterlimit:4;stroke-dasharray:none;stroke-opacity:1" />
      <path
         sodipodi:nodetypes="csc"
         inkscape:connector-curvature="0"
         id="path910-0"
         d="m 75.98948,119.36495 c 0,0 20.468709,1.64622 30.58901,1.11085 8.11382,-0.42923 25.85332,-3.83532 25.85332,-3.83532"
         style="fill:none;stroke:#000000;stroke-width:0.1;stroke-linecap:butt;stroke-linejoin:miter;stroke-miterlimit:4;stroke-dasharray:none;stroke-opacity:1" />
      <path
         sodipodi:nodetypes="csc"
         inkscape:connector-curvature="0"
         id="path910-2-7"
         d="m 76.04922,131.09651 c 0,0 21.310608,2.20748 31.43089,1.6721 8.11384,-0.42923 25.69039,-4.21929 25.69039,-4.21929"
         style="fill:none;stroke:#000000;stroke-width:0.1;stroke-linecap:butt;stroke-linejoin:miter;stroke-miterlimit:4;stroke-dasharray:none;stroke-opacity:1" />
      <path
         sodipodi:nodetypes="csc"
         inkscape:connector-curvature="0"
         id="path910-6"
         d="m 42.281372,85.034833 c 0,0 1.872584,3.214281 6.118928,4.579451 3.404456,1.094511 6.189295,0.593453 6.189295,0.593453"
         style="fill:none;stroke:#000000;stroke-width:0.07111059;stroke-linecap:butt;stroke-linejoin:miter;stroke-miterlimit:4;stroke-dasharray:none;stroke-opacity:1" />
      <path
         sodipodi:nodetypes="csc"
         inkscape:connector-curvature="0"
         id="path910-2-4"
         d="m 39.639218,94.426836 c 0,0 1.145853,2.792321 5.392193,4.157481 3.404457,1.09452 7.009743,0.765069 7.009743,0.765069"
         style="fill:none;stroke:#000000;stroke-width:0.07111059;stroke-linecap:butt;stroke-linejoin:miter;stroke-miterlimit:4;stroke-dasharray:none;stroke-opacity:1" />
      <path
         sodipodi:nodetypes="csc"
         inkscape:connector-curvature="0"
         id="path910-0-8"
         d="m 37.986333,104.05217 c 0,0 2.58668,4.34471 6.833025,5.70989 3.404451,1.09452 5.973937,-0.71886 5.973937,-0.71886"
         style="fill:none;stroke:#000000;stroke-width:0.07111059;stroke-linecap:butt;stroke-linejoin:miter;stroke-miterlimit:4;stroke-dasharray:none;stroke-opacity:1" />
      <path
         sodipodi:nodetypes="csc"
         inkscape:connector-curvature="0"
         id="path910-2-7-7"
         d="m 35.524661,119.2136 c 0,0 4.444024,3.13608 8.690366,4.50127 3.404461,1.0945 3.931136,0.4332 3.931136,0.4332"
         style="fill:none;stroke:#000000;stroke-width:0.07111059;stroke-linecap:butt;stroke-linejoin:miter;stroke-miterlimit:4;stroke-dasharray:none;stroke-opacity:1" />
      <path
         sodipodi:nodetypes="csc"
         inkscape:connector-curvature="0"
         id="path910-6-4"
         d="m 40.846255,89.853449 c 0,0 1.872584,3.214281 6.118928,4.579449 3.404457,1.09451 6.189296,0.59346 6.189296,0.59346"
         style="fill:none;stroke:#000000;stroke-width:0.07111059;stroke-linecap:butt;stroke-linejoin:miter;stroke-miterlimit:4;stroke-dasharray:none;stroke-opacity:1" />
      <path
         sodipodi:nodetypes="csc"
         inkscape:connector-curvature="0"
         id="path910-2-4-9"
         d="m 38.927571,100.17562 c 0,0 1.145853,2.79233 5.392193,4.15749 3.404458,1.09452 7.009744,0.76506 7.009744,0.76506"
         style="fill:none;stroke:#000000;stroke-width:0.07111059;stroke-linecap:butt;stroke-linejoin:miter;stroke-miterlimit:4;stroke-dasharray:none;stroke-opacity:1" />
      <path
         sodipodi:nodetypes="csc"
         inkscape:connector-curvature="0"
         id="path910-0-8-1"
         d="m 37.274686,109.80096 c 0,0 1.346446,3.9313 5.592791,5.29648 3.404451,1.09452 7.214171,-0.30545 7.214171,-0.30545"
         style="fill:none;stroke:#000000;stroke-width:0.07111059;stroke-linecap:butt;stroke-linejoin:miter;stroke-miterlimit:4;stroke-dasharray:none;stroke-opacity:1" />
      <path
         sodipodi:nodetypes="csc"
         inkscape:connector-curvature="0"
         id="path910-2-7-7-4"
         d="m 34.813014,124.96239 c 0,0 4.444024,3.13608 8.690366,4.50127 3.404461,1.0945 3.931137,0.4332 3.931137,0.4332"
         style="fill:none;stroke:#000000;stroke-width:0.07111059;stroke-linecap:butt;stroke-linejoin:miter;stroke-miterlimit:4;stroke-dasharray:none;stroke-opacity:1" />
      <path
         sodipodi:nodetypes="csc"
         inkscape:connector-curvature="0"
         id="path993"
         d="m 45.061848,79.235513 c 0,0 2.401747,2.759259 3.927409,3.720703 2.278822,1.436071 7.544761,2.893881 7.544761,2.893881"
         style="fill:none;stroke:#000000;stroke-width:0.1;stroke-linecap:butt;stroke-linejoin:miter;stroke-miterlimit:4;stroke-dasharray:none;stroke-opacity:1" />
      <path
         inkscape:original-d="m 47.955729,73.75781 c 1.343853,1.377773 2.687439,2.755813 4.030763,4.134115 1.343321,1.378302 5.443513,2.273498 8.164874,3.410646"
         inkscape:path-effect="#path-effect997"
         inkscape:connector-curvature="0"
         id="path995"
         d="m 47.955729,73.75781 c 1.114163,1.579229 2.480241,2.980335 4.030763,4.134115 2.389935,1.778407 5.22005,2.960608 8.164874,3.410646"
         style="fill:none;stroke:#000000;stroke-width:0.1;stroke-linecap:butt;stroke-linejoin:miter;stroke-miterlimit:4;stroke-dasharray:none;stroke-opacity:1" />
      <path
         sodipodi:nodetypes="csc"
         inkscape:original-d="m 55.293783,64.766112 c 1.653911,2.37685 3.307556,4.753968 4.960938,7.131347 1.653381,2.377381 2.44628,4.719516 3.61735,6.82129"
         inkscape:path-effect="#path-effect1001"
         inkscape:connector-curvature="0"
         id="path999"
         d="m 55.293783,64.766112 c 1.802708,2.268656 3.460821,4.652193 4.960938,7.131347 1.333102,2.203138 2.541458,4.481752 3.61735,6.82129"
         style="fill:none;stroke:#000000;stroke-width:0.1;stroke-linecap:butt;stroke-linejoin:miter;stroke-miterlimit:4;stroke-dasharray:none;stroke-opacity:1" />
      <path
         inkscape:original-d="m 73.380533,92.774737 c 10.163297,0.275344 20.326329,0.619853 30.489097,0.930177 10.16277,0.310322 16.33002,-1.860616 24.49463,-2.790528"
         inkscape:path-effect="#path-effect1005"
         inkscape:connector-curvature="0"
         id="path1003"
         d="m 73.380533,92.774737 c 10.116866,1.118517 20.322861,1.429886 30.489097,0.930177 8.21344,-0.403722 16.40085,-1.336464 24.49463,-2.790528"
         style="fill:none;stroke:#000000;stroke-width:0.1;stroke-linecap:butt;stroke-linejoin:miter;stroke-miterlimit:4;stroke-dasharray:none;stroke-opacity:1" />
      <path
         inkscape:original-d="m 71.520181,85.229979 c 10.094394,0.206442 20.188523,0.413147 30.282389,0.620118 10.09387,0.20697 18.46598,-3.514262 27.69857,-5.270998"
         inkscape:path-effect="#path-effect1009"
         inkscape:connector-curvature="0"
         id="path1007"
         d="m 71.520181,85.229979 c 10.032522,1.296144 20.205216,1.504459 30.282389,0.620118 9.37835,-0.823014 18.67344,-2.591856 27.69857,-5.270998"
         style="fill:none;stroke:#000000;stroke-width:0.1;stroke-linecap:butt;stroke-linejoin:miter;stroke-miterlimit:4;stroke-dasharray:none;stroke-opacity:1" />
      <path
         inkscape:original-d="m 76.89453,143.31429 c 10.059943,0.61985 20.119623,1.23997 30.17904,1.86035 10.05941,0.62038 17.91476,-2.96305 26.87174,-4.44417"
         inkscape:path-effect="#path-effect1013"
         inkscape:connector-curvature="0"
         id="path1011"
         d="m 76.89453,143.31429 c 9.938864,1.81071 20.093032,2.43665 30.17904,1.86035 9.0814,-0.51889 18.10684,-2.01156 26.87174,-4.44417"
         style="fill:none;stroke:#000000;stroke-width:0.1;stroke-linecap:butt;stroke-linejoin:miter;stroke-miterlimit:4;stroke-dasharray:none;stroke-opacity:1" />
      <path
         inkscape:original-d="m 78.238119,159.23063 c 3.273105,0.92991 6.545945,1.86009 9.818521,2.79053 3.272575,0.93044 8.268493,-0.75819 12.40234,-1.13688"
         inkscape:path-effect="#path-effect1017"
         inkscape:connector-curvature="0"
         id="path1015"
         d="m 78.238119,159.23063 c 3.088711,1.46394 6.421563,2.41117 9.818521,2.79053 4.154166,0.46392 8.401749,0.0746 12.40234,-1.13688"
         style="fill:none;stroke:#000000;stroke-width:0.1;stroke-linecap:butt;stroke-linejoin:miter;stroke-miterlimit:4;stroke-dasharray:none;stroke-opacity:1" />
      <path
         inkscape:original-d="m 77.824707,171.52962 c 3.031948,0.79211 6.063631,1.58448 9.095052,2.37712 3.031419,0.79263 7.579474,-0.68929 11.368815,-1.03353"
         inkscape:path-effect="#path-effect1021"
         inkscape:connector-curvature="0"
         id="path1019"
         d="m 77.824707,171.52962 c 2.883194,1.25953 5.964285,2.06482 9.095052,2.37712 3.809339,0.37999 7.690447,0.0272 11.368815,-1.03353"
         style="fill:none;stroke:#000000;stroke-width:0.1;stroke-linecap:butt;stroke-linejoin:miter;stroke-miterlimit:4;stroke-dasharray:none;stroke-opacity:1" />
      <path
         inkscape:original-d="m 77.411296,181.86491 c 2.928593,1.10216 5.856925,2.27349 8.784992,3.41064 2.928067,1.13715 6.683751,-1.1716 10.025229,-1.757"
         inkscape:path-effect="#path-effect1025"
         inkscape:connector-curvature="0"
         id="path1023"
         d="m 77.411296,181.86491 c 2.564507,1.87574 5.62662,3.06456 8.784992,3.41064 3.417813,0.37451 6.938478,-0.24251 10.025229,-1.757"
         style="fill:none;stroke:#000000;stroke-width:0.1;stroke-linecap:butt;stroke-linejoin:miter;stroke-miterlimit:4;stroke-dasharray:none;stroke-opacity:1" />
      <path
         inkscape:original-d="m 76.997884,193.13037 c 2.721888,0.82656 5.443514,1.65338 8.164875,2.48047 2.721362,0.82708 6.27034,-0.34478 9.405112,-0.51677"
         inkscape:path-effect="#path-effect1029"
         inkscape:connector-curvature="0"
         id="path1027"
         d="m 76.997884,193.13037 c 2.559109,1.27151 5.330941,2.11359 8.164875,2.48047 3.131351,0.40539 6.337026,0.22925 9.405112,-0.51677"
         style="fill:none;stroke:#000000;stroke-width:0.1;stroke-linecap:butt;stroke-linejoin:miter;stroke-miterlimit:4;stroke-dasharray:none;stroke-opacity:1" />
      <path
         inkscape:original-d="m 76.791179,202.12207 c 2.652987,0.89546 5.30571,1.79118 7.958169,2.68717 2.652458,0.89599 5.719122,-0.89599 8.578289,-1.34359"
         inkscape:path-effect="#path-effect1033"
         inkscape:connector-curvature="0"
         id="path1031"
         d="m 76.791179,202.12207 c 2.391326,1.50617 5.143281,2.4354 7.958169,2.68717 2.911723,0.26043 5.885633,-0.20536 8.578289,-1.34359"
         style="fill:none;stroke:#000000;stroke-width:0.1;stroke-linecap:butt;stroke-linejoin:miter;stroke-miterlimit:4;stroke-dasharray:none;stroke-opacity:1" />
      <path
         inkscape:original-d="m 76.481119,209.66683 c 2.480733,1.03326 4.961202,2.06679 7.441406,3.10058 2.480204,1.0338 5.650222,-0.62038 8.474935,-0.93017"
         inkscape:path-effect="#path-effect1037"
         inkscape:connector-curvature="0"
         id="path1035"
         d="m 76.481119,209.66683 c 2.177648,1.62012 4.75765,2.69512 7.441406,3.10058 2.841783,0.42933 5.793924,0.10532 8.474935,-0.93017"
         style="fill:none;stroke:#000000;stroke-width:0.1;stroke-linecap:butt;stroke-linejoin:miter;stroke-miterlimit:4;stroke-dasharray:none;stroke-opacity:1" />
      <path
         inkscape:original-d="m 76.481119,217.52164 c 2.446282,1.13662 4.892299,2.2735 7.338054,3.41065 2.445753,1.13714 5.443514,-0.55148 8.164875,-0.82683"
         inkscape:path-effect="#path-effect1041"
         inkscape:connector-curvature="0"
         id="path1039"
         d="m 76.481119,217.52164 c 2.085531,1.76074 4.647539,2.95154 7.338054,3.41065 2.729595,0.46578 5.584075,0.17672 8.164875,-0.82683"
         style="fill:none;stroke:#000000;stroke-width:0.1;stroke-linecap:butt;stroke-linejoin:miter;stroke-miterlimit:4;stroke-dasharray:none;stroke-opacity:1" />
      <path
         inkscape:original-d="m 76.377767,227.54687 c 2.721888,0.68876 5.443514,1.44668 8.164875,2.17041 2.721361,0.72374 4.823399,-2.27403 7.234701,-3.41064"
         inkscape:path-effect="#path-effect1045"
         inkscape:connector-curvature="0"
         id="path1043"
         d="m 76.377767,227.54687 c 2.342342,1.67215 5.301394,2.45874 8.164875,2.17041 2.70456,-0.27232 5.303624,-1.49759 7.234701,-3.41064"
         style="fill:none;stroke:#000000;stroke-width:0.1;stroke-linecap:butt;stroke-linejoin:miter;stroke-miterlimit:4;stroke-dasharray:none;stroke-opacity:1" />
      <path
         inkscape:original-d="m 76.584473,239.74251 c 3.583162,0.30979 7.166062,0.61985 10.748698,0.93018 3.582633,0.31032 3.927673,-2.89415 5.891112,-4.34082"
         inkscape:path-effect="#path-effect1049"
         inkscape:connector-curvature="0"
         id="path1047"
         d="m 76.584473,239.74251 c 3.22207,1.84134 7.258204,2.19062 10.748698,0.93018 2.326352,-0.84006 4.399622,-2.36773 5.891112,-4.34082"
         style="fill:none;stroke:#000000;stroke-width:0.1;stroke-linecap:butt;stroke-linejoin:miter;stroke-miterlimit:4;stroke-dasharray:none;stroke-opacity:1" />
      <path
         inkscape:original-d="m 86.299642,253.17838 c 3.617614,-1.06824 7.234965,-2.13622 10.852049,-3.20394 3.617089,-1.06771 2.480734,-4.68559 3.720699,-7.02799"
         inkscape:path-effect="#path-effect1053"
         inkscape:connector-curvature="0"
         id="path1051"
         d="m 86.299642,253.17838 c 3.848757,0.71891 8.010919,-0.50992 10.852049,-3.20394 1.957766,-1.8564 3.285989,-4.36527 3.720699,-7.02799"
         style="fill:none;stroke:#000000;stroke-width:0.1;stroke-linecap:butt;stroke-linejoin:miter;stroke-miterlimit:4;stroke-dasharray:none;stroke-opacity:1" />
      <path
         inkscape:original-d="m 116.27197,161.19433 c 2.72189,0.89546 5.44352,1.72229 8.16488,2.58383 2.72136,0.86153 6.54595,-1.79172 9.81852,-2.68718"
         inkscape:path-effect="#path-effect1057"
         inkscape:connector-curvature="0"
         id="path1055"
         d="m 116.27197,161.19433 c 2.43422,1.55299 5.28039,2.45368 8.16488,2.58383 3.44546,0.15546 6.93241,-0.79887 9.81852,-2.68718"
         style="fill:none;stroke:#000000;stroke-width:0.1;stroke-linecap:butt;stroke-linejoin:miter;stroke-miterlimit:4;stroke-dasharray:none;stroke-opacity:1" />
      <path
         inkscape:original-d="m 114.61833,172.97656 c 3.16975,0.5854 6.33924,1.17107 9.50846,1.757 3.16922,0.58593 5.85693,-0.82709 8.78499,-1.24024"
         inkscape:path-effect="#path-effect1061"
         inkscape:connector-curvature="0"
         id="path1059"
         d="m 114.61833,172.97656 c 3.04076,1.11414 6.27034,1.71092 9.50846,1.757 2.96886,0.0422 5.94386,-0.37775 8.78499,-1.24024"
         style="fill:none;stroke:#000000;stroke-width:0.1;stroke-linecap:butt;stroke-linejoin:miter;stroke-miterlimit:4;stroke-dasharray:none;stroke-opacity:1" />
      <path
         inkscape:original-d="m 113.17139,181.86491 c 2.48073,1.27442 4.9612,2.5491 7.4414,3.82405 2.48021,1.27495 6.68375,-1.1716 10.02523,-1.757"
         inkscape:path-effect="#path-effect1065"
         inkscape:connector-curvature="0"
         id="path1063"
         d="m 113.17139,181.86491 c 2.03861,1.96096 4.66019,3.30816 7.4414,3.82405 3.40766,0.63209 7.03562,-0.004 10.02523,-1.757"
         style="fill:none;stroke:#000000;stroke-width:0.1;stroke-linecap:butt;stroke-linejoin:miter;stroke-miterlimit:4;stroke-dasharray:none;stroke-opacity:1" />
      <path
         inkscape:original-d="m 111.10433,196.23095 c 2.20512,0.75766 4.40998,1.51558 6.61458,2.27377 2.2046,0.75818 6.47704,-0.62038 9.71517,-0.93018"
         inkscape:path-effect="#path-effect1069"
         inkscape:connector-curvature="0"
         id="path1067"
         d="m 111.10433,196.23095 c 2.04708,1.14141 4.29837,1.9153 6.61458,2.27377 3.24839,0.50275 6.62119,0.17982 9.71517,-0.93018"
         style="fill:none;stroke:#000000;stroke-width:0.1;stroke-linecap:butt;stroke-linejoin:miter;stroke-miterlimit:4;stroke-dasharray:none;stroke-opacity:1" />
      <path
         inkscape:original-d="m 109.96745,205.01595 c 2.68744,0.7232 5.37461,1.44667 8.06152,2.17041 2.68691,0.72373 5.09901,-0.48258 7.64811,-0.72347"
         inkscape:path-effect="#path-effect1073"
         inkscape:connector-curvature="0"
         id="path1071"
         d="m 109.96745,205.01595 c 2.52138,1.21534 5.27078,1.95556 8.06152,2.17041 2.5657,0.19752 5.16495,-0.0483 7.64811,-0.72347"
         style="fill:none;stroke:#000000;stroke-width:0.1;stroke-linecap:butt;stroke-linejoin:miter;stroke-miterlimit:4;stroke-dasharray:none;stroke-opacity:1" />
      <path
         inkscape:original-d="m 109.65739,213.90429 c 2.54963,0.79211 5.16791,1.58448 7.75146,2.37712 2.58356,0.79264 5.23681,-1.4472 7.85482,-2.17041"
         inkscape:path-effect="#path-effect1077"
         inkscape:connector-curvature="0"
         id="path1075"
         d="m 109.65739,213.90429 c 2.29044,1.50192 5.0128,2.33678 7.75146,2.37712 2.75303,0.0405 5.51318,-0.72212 7.85482,-2.17041"
         style="fill:none;stroke:#000000;stroke-width:0.1;stroke-linecap:butt;stroke-linejoin:miter;stroke-miterlimit:4;stroke-dasharray:none;stroke-opacity:1" />
      <path
         inkscape:original-d="m 109.65739,220.00211 c 2.75634,0.5165 5.58132,1.03327 8.37158,1.55029 2.79026,0.51703 5.37461,-1.10269 8.06152,-1.65364"
         inkscape:path-effect="#path-effect1081"
         inkscape:connector-curvature="0"
         id="path1079"
         d="m 109.65739,220.00211 c 2.65339,1.05716 5.51559,1.5872 8.37158,1.55029 2.75936,-0.0357 5.51095,-0.60008 8.06152,-1.65364"
         style="fill:none;stroke:#000000;stroke-width:0.1;stroke-linecap:butt;stroke-linejoin:miter;stroke-miterlimit:4;stroke-dasharray:none;stroke-opacity:1" />
      <path
         inkscape:original-d="m 110.27751,227.85693 c 2.96304,0.48205 5.92582,0.96436 8.88834,1.44694 2.96252,0.48258 5.65022,-2.41183 8.47494,-3.61735"
         inkscape:path-effect="#path-effect1085"
         inkscape:connector-curvature="0"
         id="path1083"
         d="m 110.27751,227.85693 c 2.75087,1.29653 5.86828,1.80402 8.88834,1.44694 3.09221,-0.36561 6.07179,-1.63738 8.47494,-3.61735"
         style="fill:none;stroke:#000000;stroke-width:0.1;stroke-linecap:butt;stroke-linejoin:miter;stroke-miterlimit:4;stroke-dasharray:none;stroke-opacity:1" />
      <path
         inkscape:original-d="m 114.20492,240.25927 c 4.92675,-0.68928 9.85323,-1.3783 14.77945,-2.06705 4.92622,-0.68876 2.68744,-3.72097 4.03077,-5.58106"
         inkscape:path-effect="#path-effect1089"
         inkscape:connector-curvature="0"
         id="path1087"
         d="m 114.20492,240.25927 c 2.39366,1.06944 5.09001,1.45109 7.68643,1.08796 2.59643,-0.36314 5.08461,-1.46989 7.09302,-3.15501 1.77602,-1.49014 3.17458,-3.4266 4.03077,-5.58106"
         style="fill:none;stroke:#000000;stroke-width:0.1;stroke-linecap:butt;stroke-linejoin:miter;stroke-miterlimit:4;stroke-dasharray:none;stroke-opacity:1" />
      <g
         transform="matrix(-1,0,0,1,105.49742,4.69398)"
         id="g1153">
        <path
           style="fill:none;stroke:#000000;stroke-width:0.07111059;stroke-linecap:butt;stroke-linejoin:miter;stroke-miterlimit:4;stroke-dasharray:none;stroke-opacity:1"
           d="m -53.375716,79.550033 c 0,0 1.872584,3.214281 6.118927,4.579451 3.404456,1.094511 7.873093,0.780542 7.873093,0.780542"
           id="path910-6-3"
           inkscape:connector-curvature="0"
           sodipodi:nodetypes="csc" />
        <path
           style="fill:none;stroke:#000000;stroke-width:0.07111059;stroke-linecap:butt;stroke-linejoin:miter;stroke-miterlimit:4;stroke-dasharray:none;stroke-opacity:1"
           d="m -56.01787,88.942036 c 0,0 1.145853,2.792323 5.392192,4.157483 3.404457,1.094517 8.319364,0.484433 8.319364,0.484433"
           id="path910-2-4-5"
           inkscape:connector-curvature="0"
           sodipodi:nodetypes="csc" />
        <path
           style="fill:none;stroke:#000000;stroke-width:0.07111059;stroke-linecap:butt;stroke-linejoin:miter;stroke-miterlimit:4;stroke-dasharray:none;stroke-opacity:1"
           d="m -57.670755,98.567371 c 0,0 2.58668,4.344709 6.833024,5.709889 3.404451,1.09452 5.973938,-0.71886 5.973938,-0.71886"
           id="path910-0-8-2"
           inkscape:connector-curvature="0"
           sodipodi:nodetypes="csc" />
        <path
           style="fill:none;stroke:#000000;stroke-width:0.07111059;stroke-linecap:butt;stroke-linejoin:miter;stroke-miterlimit:4;stroke-dasharray:none;stroke-opacity:1"
           d="m -60.132427,113.7288 c 0,0 4.444024,3.13608 8.690366,4.50127 3.40446,1.0945 3.931135,0.4332 3.931135,0.4332"
           id="path910-2-7-7-3"
           inkscape:connector-curvature="0"
           sodipodi:nodetypes="csc" />
        <path
           style="fill:none;stroke:#000000;stroke-width:0.07111059;stroke-linecap:butt;stroke-linejoin:miter;stroke-miterlimit:4;stroke-dasharray:none;stroke-opacity:1"
           d="m -54.810833,84.368649 c 0,0 1.872584,3.214281 6.118928,4.579449 3.404457,1.094509 7.592461,0.59346 7.592461,0.59346"
           id="path910-6-4-3"
           inkscape:connector-curvature="0"
           sodipodi:nodetypes="csc" />
        <path
           style="fill:none;stroke:#000000;stroke-width:0.07111059;stroke-linecap:butt;stroke-linejoin:miter;stroke-miterlimit:4;stroke-dasharray:none;stroke-opacity:1"
           d="m -56.729517,94.690821 c 0,0 1.145853,2.79233 5.392193,4.15749 3.404457,1.094521 7.571009,0.765059 7.571009,0.765059"
           id="path910-2-4-9-5"
           inkscape:connector-curvature="0"
           sodipodi:nodetypes="csc" />
        <path
           style="fill:none;stroke:#000000;stroke-width:0.07111059;stroke-linecap:butt;stroke-linejoin:miter;stroke-miterlimit:4;stroke-dasharray:none;stroke-opacity:1"
           d="m -58.663035,104.12907 c 0,0 1.627079,4.11839 5.873424,5.48357 3.40445,1.09452 7.21417,-0.30545 7.21417,-0.30545"
           id="path910-0-8-1-9"
           inkscape:connector-curvature="0"
           sodipodi:nodetypes="csc" />
        <path
           style="fill:none;stroke:#000000;stroke-width:0.07111059;stroke-linecap:butt;stroke-linejoin:miter;stroke-miterlimit:4;stroke-dasharray:none;stroke-opacity:1"
           d="m -60.095719,119.85177 c 0,0 3.695669,2.7619 7.942011,4.12709 3.40446,1.0945 3.931136,0.4332 3.931136,0.4332"
           id="path910-2-7-7-4-6"
           inkscape:connector-curvature="0"
           sodipodi:nodetypes="csc" />
        <path
           style="fill:none;stroke:#000000;stroke-width:0.1;stroke-linecap:butt;stroke-linejoin:miter;stroke-miterlimit:4;stroke-dasharray:none;stroke-opacity:1"
           d="m -51.343596,73.282991 c 0,0 3.150103,3.226981 4.675764,4.188425 2.278823,1.436071 9.041471,3.455147 9.041471,3.455147"
           id="path993-1"
           inkscape:connector-curvature="0"
           sodipodi:nodetypes="csc" />
        <path
           sodipodi:nodetypes="ccc"
           transform="translate(-95.65709,-5.4848005)"
           style="fill:none;stroke:#000000;stroke-width:0.1;stroke-linecap:butt;stroke-linejoin:miter;stroke-miterlimit:4;stroke-dasharray:none;stroke-opacity:1"
           d="m 46.833197,73.290088 c 1.494485,1.761878 3.234213,3.315437 5.153295,4.601837 2.639301,1.769178 5.618439,3.029395 8.72614,3.691279"
           id="path995-7"
           inkscape:connector-curvature="0"
           inkscape:path-effect="#path-effect997-7"
           inkscape:original-d="m 46.833197,73.290088 c 1.343853,1.377773 3.809971,3.223535 5.153295,4.601837 1.343321,1.378302 6.004779,2.554131 8.72614,3.691279" />
        <path
           transform="translate(-95.65709,-5.4848005)"
           style="fill:none;stroke:#000000;stroke-width:0.1;stroke-linecap:butt;stroke-linejoin:miter;stroke-miterlimit:4;stroke-dasharray:none;stroke-opacity:1"
           d="m 53.703529,63.737124 c 2.470839,2.471981 4.67179,5.213543 6.551192,8.160335 1.385422,2.172261 2.596371,4.455764 3.61735,6.82129"
           id="path999-2"
           inkscape:connector-curvature="0"
           inkscape:path-effect="#path-effect1001-4"
           inkscape:original-d="m 53.703529,63.737124 c 1.653911,2.37685 4.89781,5.782956 6.551192,8.160335 1.653381,2.377381 2.44628,4.719516 3.61735,6.82129"
           sodipodi:nodetypes="csc" />
      </g>
    </g>
  </g>
</svg>
