<?xml version="1.0" encoding="UTF-8" standalone="no"?>
<!-- Created with Inkscape (http://www.inkscape.org/) -->

<svg
   xmlns:dc="http://purl.org/dc/elements/1.1/"
   xmlns:cc="http://creativecommons.org/ns#"
   xmlns:rdf="http://www.w3.org/1999/02/22-rdf-syntax-ns#"
   xmlns:svg="http://www.w3.org/2000/svg"
   xmlns="http://www.w3.org/2000/svg"
   xmlns:sodipodi="http://sodipodi.sourceforge.net/DTD/sodipodi-0.dtd"
   xmlns:inkscape="http://www.inkscape.org/namespaces/inkscape"
   width="149mm"
   height="105mm"
   viewBox="0 0 149 105"
   version="1.1"
   id="svg8"
   inkscape:version="0.92.4 (5da689c313, 2019-01-14)"
   sodipodi:docname="uni_translator.svg">
  <defs
     id="defs2">
    <inkscape:path-effect
       effect="spiro"
       id="path-effect4581"
       is_visible="true" />
    <inkscape:path-effect
       effect="spiro"
       id="path-effect4551"
       is_visible="true" />
    <inkscape:path-effect
       effect="spiro"
       id="path-effect4551-9"
       is_visible="true" />
    <inkscape:path-effect
       effect="spiro"
       id="path-effect4551-98"
       is_visible="true" />
    <inkscape:path-effect
       effect="spiro"
       id="path-effect4581-6"
       is_visible="true" />
    <inkscape:path-effect
       effect="spiro"
       id="path-effect4581-6-2"
       is_visible="true" />
    <inkscape:path-effect
       effect="spiro"
       id="path-effect4581-6-4"
       is_visible="true" />
  </defs>
  <sodipodi:namedview
     id="base"
     pagecolor="#ffffff"
     bordercolor="#666666"
     borderopacity="1.0"
     inkscape:pageopacity="0.0"
     inkscape:pageshadow="2"
     inkscape:zoom="2"
     inkscape:cx="81.659355"
     inkscape:cy="263.59791"
     inkscape:document-units="mm"
     inkscape:current-layer="layer1"
     showgrid="false"
     inkscape:window-width="1920"
     inkscape:window-height="1001"
     inkscape:window-x="-9"
     inkscape:window-y="-9"
     inkscape:window-maximized="1"
     height="105mm" />
  <metadata
     id="metadata5">
    <rdf:RDF>
      <cc:Work
         rdf:about="">
        <dc:format>image/svg+xml</dc:format>
        <dc:type
           rdf:resource="http://purl.org/dc/dcmitype/StillImage" />
        <dc:title></dc:title>
      </cc:Work>
    </rdf:RDF>
  </metadata>
  <g
     inkscape:label="Layer 1"
     inkscape:groupmode="layer"
     id="layer1"
     transform="translate(0,-192)">
    <path
       style="fill:#ffff00;stroke:#000000;stroke-width:0.26458332px;stroke-linecap:butt;stroke-linejoin:miter;stroke-opacity:1"
       d="m 113.39327,198.55889 -12.09538,7.55974 -10.583336,15.875 -9.07128,-18.8991 c 0,0 -41.917707,-1.80666 -46.566662,2.38125 -5.285475,4.76129 -14.665772,17.27336 -14.665772,17.27336 l -6.198588,-8.31526 c 0,0 -6.1991047,-2.06636 -6.1991047,0 v 16.63074 17.38616 c 0,2.06637 6.1991047,0 6.1991047,0 l 6.198588,-8.31526 c 0,0 5.709565,13.1955 12.019939,16.47962 7.030205,3.65874 49.212495,3.175 49.212495,3.175 l 9.07128,-18.89859 10.583336,15.875 12.09538,7.55923 -3.40185,-33.26116 z"
       id="path815"
       inkscape:connector-curvature="0"
       sodipodi:nodetypes="ccccsccscsccscccccc" />
    <circle
       style="fill:#ffff98;fill-opacity:1;stroke:#000000;stroke-width:0.28251472;stroke-linecap:square;stroke-miterlimit:4;stroke-dasharray:none;stroke-dashoffset:0;stroke-opacity:1"
       id="path4545"
       cx="35.756748"
       cy="216.51198"
       r="4.6386595" />
    <circle
       style="fill:#000000;fill-opacity:1;stroke:#000000;stroke-width:0.26329702;stroke-linecap:square;stroke-miterlimit:4;stroke-dasharray:none;stroke-dashoffset:0;stroke-opacity:1"
       id="path4547"
       cx="37.278103"
       cy="214.26303"
       r="1.142539" />
    <path
       style="fill:none;stroke:#c0c000;stroke-width:0.26458332px;stroke-linecap:butt;stroke-linejoin:miter;stroke-opacity:1"
       d="m 79.639582,138.51458 c 4.465632,-4.02938 8.166377,-8.90353 10.847917,-14.2875 3.537277,-7.10211 5.281449,-15.08858 5.027083,-23.01875"
       id="path4549"
       inkscape:connector-curvature="0"
       inkscape:path-effect="#path-effect4551"
       inkscape:original-d="m 79.639582,138.51458 c 3.616238,-4.76276 7.232208,-9.52526 10.847917,-14.2875 3.615708,-4.76223 3.351654,-15.34609 5.027083,-23.01875"
       transform="translate(-43.089086,119.2724)" />
    <path
       transform="translate(-35.191405,120.40706)"
       style="fill:none;stroke:#c0c000;stroke-width:0.26458332px;stroke-linecap:butt;stroke-linejoin:miter;stroke-opacity:1"
       d="m 79.639582,138.51458 c 4.440556,-4.05381 8.136113,-8.92112 10.847917,-14.2875 3.769662,-7.45977 5.6143,-15.88231 5.307716,-24.234826"
       id="path4549-3"
       inkscape:connector-curvature="0"
       inkscape:path-effect="#path-effect4551-9"
       inkscape:original-d="m 79.639582,138.51458 c 3.616238,-4.76276 7.232208,-9.52526 10.847917,-14.2875 3.615708,-4.76223 3.632287,-16.56217 5.307716,-24.234826"
       sodipodi:nodetypes="csc" />
    <path
       transform="translate(-50.158498,115.82339)"
       style="fill:none;stroke:#c0c000;stroke-width:0.26458332px;stroke-linecap:butt;stroke-linejoin:miter;stroke-opacity:1"
       d="m 79.639582,138.51458 c 4.474445,-4.02075 8.177057,-8.89736 10.847917,-14.2875 3.035369,-6.12577 4.73081,-12.91115 4.933539,-19.7447"
       id="path4549-4"
       inkscape:connector-curvature="0"
       inkscape:path-effect="#path-effect4551-98"
       inkscape:original-d="m 79.639582,138.51458 c 3.616238,-4.76276 7.232208,-9.52526 10.847917,-14.2875 3.615708,-4.76223 3.25811,-12.07204 4.933539,-19.7447"
       sodipodi:nodetypes="csc" />
    <path
       style="fill:#ffffff;fill-opacity:1;stroke:#000000;stroke-width:0.26458332px;stroke-linecap:butt;stroke-linejoin:miter;stroke-opacity:1"
       d="m 16.276714,107.57272 c 0.155889,-2.08777 0.599698,-4.19604 1.665712,-5.99791 0.533007,-0.90093 1.219412,-1.716269 2.048591,-2.355203 0.82918,-0.638934 1.803248,-1.098275 2.8338,-1.281952 1.277247,-0.227645 2.616592,-0.02435 3.801501,0.504013 1.18491,0.528366 2.217229,1.372957 3.031124,2.383282 1.627788,2.02065 2.357495,4.63358 2.615353,7.21549 0.255711,2.5604 0.06618,5.23291 -1.060247,7.54639 -0.563213,1.15674 -1.358442,2.20807 -2.363026,3.01186 -1.004584,0.80378 -2.221832,1.3538 -3.499008,1.50897 -1.466949,0.17823 -2.9789,-0.17138 -4.265352,-0.89852 -1.286452,-0.72715 -2.350503,-1.81979 -3.123108,-3.07946 -1.545212,-2.51936 -1.905405,-5.60969 -1.68534,-8.55696 z"
       id="path4579-6-0"
       inkscape:connector-curvature="0"
       inkscape:original-d="m 16.276714,107.57272 c -3.024865,-4.17805 4.365667,-6.42364 6.548103,-9.635065 2.182437,-3.211425 6.298918,6.734925 9.447978,10.102785 3.14906,3.36786 -4.61459,8.04455 -6.922281,12.06722 -2.307691,4.02267 -6.048935,-8.35689 -9.0738,-12.53494 z"
       transform="matrix(0.99894562,0,0,1.1626407,-14.225878,104.60804)"
       inkscape:path-effect="#path-effect4581-6-4" />
    <path
       style="fill:#dbdb00;fill-opacity:1;stroke:#000000;stroke-width:0.2851387px;stroke-linecap:butt;stroke-linejoin:miter;stroke-opacity:1"
       d="m 10.218438,219.17543 -0.8707487,5.34851 -2.3631616,-4.6023 0.497644,5.59708 -3.149162,-3.99718 c -0.01541,0.0232 -0.03024,0.0469 -0.04547,0.0703 l 1.204578,5.41983 -2.707845,-2.03089 c -0.421854,1.47182 -0.639943,3.03254 -0.73949,4.58422 -0.219833,3.42662 0.140035,7.01965 1.683618,9.94875 0.22456,0.42612 0.476636,0.83304 0.748792,1.2206 l 2.728515,-3.10007 -0.746207,4.9754 2.4877026,-4.9754 0.746207,5.09994 0.8707487,-5.34851 2.363163,4.60231 -0.497644,-5.59759 3.233912,4.10465 -1.243851,-5.59707 3.108853,2.33164 c 0.618154,-2.26977 0.700138,-4.7371 0.495575,-7.12101 -0.257585,-3.00183 -0.986687,-6.03935 -2.612759,-8.38864 -0.06687,-0.0966 -0.137441,-0.1898 -0.207222,-0.2837 l -2.49804,2.83858 0.700733,-4.67258 c -0.02558,-0.0193 -0.05071,-0.0394 -0.07648,-0.0584 l -2.365748,4.73098 z"
       id="path4579-6"
       inkscape:connector-curvature="0"
       sodipodi:nodetypes="ccccccccsccccccccccccsccccccc" />
  </g>
</svg>
